<svg width="22" height="22" viewBox="0 0 22 22" fill="none" xmlns="http://www.w3.org/2000/svg">
<g clip-path="url(#clip0_2_35)">
<mask id="mask0_2_35" style="mask-type:luminance" maskUnits="userSpaceOnUse" x="-204" y="-51" width="431" height="428">
<path d="M-203.314 376.053H226.993V-50.8182H-203.314V376.053Z" fill="white"/>
</mask>
<g mask="url(#mask0_2_35)">
<path d="M11.2402 19.0618C10.3619 19.0037 9.3492 18.851 8.55043 18.6215C8.40079 18.5785 7.78129 18.3526 7.62371 18.2809C4.84283 17.003 2.90553 14.2135 2.90553 10.9773C2.90553 6.53843 6.54591 2.92282 11.0234 2.92282C15.4611 2.92282 19.0769 6.47676 19.139 10.8654H22.0717C22.0095 4.87333 17.0788 0.0171432 11.0234 0.0171432C4.93174 0.0171432 -0.0264282 4.93285 -0.0264282 10.9773C-0.0264282 15.1443 2.33591 18.7685 5.79484 20.6201C6.4194 20.9478 7.31576 21.2856 7.62009 21.3781C8.60609 21.6692 9.81617 21.8628 10.8932 21.9439C11.259 21.9711 12.5363 21.9854 12.9086 21.9869H33.1042V19.0891H12.9426C12.6744 19.0891 11.5026 19.079 11.2402 19.0618ZM12.9426 14.5118C12.7293 14.5118 11.6139 14.5047 11.4079 14.4875C11.0588 14.4581 10.5528 14.4064 10.2275 14.3326C9.86027 14.235 9.51546 14.106 9.36004 14.0214C8.27068 13.4369 7.52829 12.2939 7.52829 10.9773C7.52829 9.0619 9.09186 7.50867 11.0234 7.50867C12.9144 7.50867 14.4519 9.00095 14.5134 10.8654H17.3311C17.2719 7.45919 14.4729 4.71414 11.0234 4.71414C7.53552 4.71414 4.70837 7.51799 4.70837 10.9773C4.70837 13.4168 6.11797 15.5237 8.17092 16.5556C8.48681 16.7392 9.08101 16.9313 9.25016 16.9751C9.82991 17.1264 10.6084 17.2296 11.2402 17.2755C11.4737 17.2949 12.6173 17.3035 12.8587 17.3049V17.3092H33.1034V14.5118H12.9426Z" fill="url(#paint0_linear_2_35)"/>
</g>
</g>
<defs>
<linearGradient id="paint0_linear_2_35" x1="0.730842" y1="11.002" x2="33.1042" y2="11.002" gradientUnits="userSpaceOnUse">
<stop stop-color="#F9942B"/>
<stop offset="1" stop-color="#A53143"/>
</linearGradient>
<clipPath id="clip0_2_35">
<rect width="22" height="22" fill="white"/>
</clipPath>
</defs>
</svg>
