<svg width="24" height="24" viewBox="0 0 24 24" fill="none" xmlns="http://www.w3.org/2000/svg">
<path d="M21.806 2.858C21.706 2.533 21.449 2.28 21.121 2.188C20.948 2.139 16.848 1 12 1C7.152 1 3.052 2.139 2.88 2.188C2.551 2.281 2.292 2.535 2.193 2.862C2.144 3.023 1 6.869 1 12.001C1 17.176 2.146 20.983 2.194 21.143C2.294 21.468 2.552 21.721 2.88 21.813C3.052 21.862 7.152 23.001 12.001 23.001C16.85 23.001 20.948 21.862 21.121 21.813C21.45 21.72 21.709 21.466 21.808 21.139C21.857 20.978 23.001 17.132 23.001 12C23.001 6.825 21.854 3.018 21.806 2.858ZM20.559 6.536C19.485 6.3 17.852 5.992 15.913 5.789C15.918 5.55 15.921 5.312 15.921 5.077C15.921 4.728 15.914 3.922 15.899 3.244C17.773 3.468 19.277 3.794 20.037 3.976C20.17 4.499 20.374 5.384 20.559 6.536ZM13.895 3.061C13.911 3.716 13.921 4.634 13.921 5.077C13.921 6.796 13.751 8.739 13.655 9.697C13.25 9.827 12.644 9.977 12 9.977C11.356 9.977 10.749 9.827 10.344 9.697C10.248 8.742 10.079 6.808 10.079 5.076C10.079 4.632 10.089 3.714 10.106 3.06C10.72 3.022 11.354 3 12 3C12.646 3 13.281 3.022 13.895 3.06V3.061ZM8.101 3.245C8.087 3.923 8.079 4.728 8.079 5.078C8.079 5.314 8.082 5.552 8.087 5.79C6.152 5.993 4.52 6.301 3.446 6.536C3.631 5.388 3.833 4.501 3.964 3.976C4.726 3.794 6.23 3.47 8.101 3.245ZM20.035 20.026C18.793 20.324 15.577 21.001 12 21.001C8.423 21.001 5.204 20.323 3.962 20.025C3.662 18.841 3 15.795 3 12.001C3 10.803 3.068 9.674 3.17 8.653C4.05 8.441 5.897 8.039 8.178 7.792C8.276 9.285 8.413 10.456 8.422 10.531C8.463 10.873 8.676 11.171 8.988 11.318C9.045 11.345 10.402 11.978 12 11.978C13.598 11.978 14.954 11.346 15.012 11.318C15.324 11.171 15.538 10.873 15.578 10.53C15.587 10.454 15.723 9.279 15.821 7.791C18.107 8.039 19.954 8.441 20.833 8.653C20.934 9.67 21 10.798 21 12.001C21 15.753 20.335 18.83 20.035 20.026Z" fill="url(#paint0_linear_2_54)"/>
<path d="M16.937 16.511H13.703C13.15 16.511 12.703 16.959 12.703 17.511C12.703 18.063 13.15 18.511 13.703 18.511H16.937C17.49 18.511 17.937 18.063 17.937 17.511C17.937 16.959 17.49 16.511 16.937 16.511Z" fill="url(#paint1_linear_2_54)"/>
<defs>
<linearGradient id="paint0_linear_2_54" x1="1.50288" y1="12.0005" x2="23.001" y2="12.0005" gradientUnits="userSpaceOnUse">
<stop stop-color="#F9942B"/>
<stop offset="1" stop-color="#A53143"/>
</linearGradient>
<linearGradient id="paint1_linear_2_54" x1="12.8226" y1="17.511" x2="17.937" y2="17.511" gradientUnits="userSpaceOnUse">
<stop stop-color="#F9942B"/>
<stop offset="1" stop-color="#A53143"/>
</linearGradient>
</defs>
</svg>
