<svg width="24" height="24" viewBox="0 0 24 24" fill="none" xmlns="http://www.w3.org/2000/svg">
<path d="M12 21.211C7.175 21.211 3.096 20.28 2.925 20.241C2.597 20.165 2.33 19.93 2.213 19.616C2.163 19.483 1 16.306 1 12C1 7.73 2.163 4.522 2.212 4.388C2.329 4.071 2.597 3.835 2.926 3.759C3.097 3.719 7.186 2.789 12 2.789H19.803C20.355 2.789 20.803 3.237 20.803 3.789C20.803 4.341 20.355 4.789 19.803 4.789H12C8.405 4.789 5.174 5.347 3.923 5.594C3.871 5.768 3.81 5.983 3.745 6.235C5.231 6.528 8.571 7.099 12 7.099C16.584 7.099 21.093 6.034 21.138 6.023C21.395 5.962 21.669 6.004 21.896 6.145C22.123 6.285 22.284 6.509 22.344 6.768C22.69 8.249 23 9.764 23 12.001C23 16.271 21.837 19.479 21.788 19.613C21.671 19.93 21.403 20.166 21.074 20.242C20.903 20.282 16.814 21.211 12 21.211ZM3.921 18.406C5.17 18.652 8.403 19.211 12 19.211C15.597 19.211 18.826 18.653 20.077 18.406C20.382 17.385 21 14.95 21 11.999C21 10.432 20.836 9.277 20.61 8.18C18.974 8.509 15.548 9.097 12 9.097C8.345 9.097 4.877 8.5 3.327 8.191C3.144 9.274 3 10.576 3 11.999C3 14.987 3.616 17.397 3.921 18.406Z" fill="url(#paint0_linear_2_50)"/>
<path d="M17.47 14.269C18.0223 14.269 18.47 13.8213 18.47 13.269C18.47 12.7167 18.0223 12.269 17.47 12.269C16.9177 12.269 16.47 12.7167 16.47 13.269C16.47 13.8213 16.9177 14.269 17.47 14.269Z" fill="url(#paint1_linear_2_50)"/>
<defs>
<linearGradient id="paint0_linear_2_50" x1="1.50286" y1="12.0005" x2="23" y2="12.0005" gradientUnits="userSpaceOnUse">
<stop stop-color="#F9942B"/>
<stop offset="1" stop-color="#A53143"/>
</linearGradient>
<linearGradient id="paint1_linear_2_50" x1="16.5157" y1="13.269" x2="18.47" y2="13.269" gradientUnits="userSpaceOnUse">
<stop stop-color="#F9942B"/>
<stop offset="1" stop-color="#A53143"/>
</linearGradient>
</defs>
</svg>
