<svg width="18" height="18" viewBox="0 0 18 18" fill="none" xmlns="http://www.w3.org/2000/svg">
<path d="M11.916 10.6305C11.964 10.74 11.967 10.8615 11.9257 10.9718C11.883 11.0805 11.802 11.166 11.6955 11.2125C11.5815 11.2627 11.4502 11.2635 11.3962 11.2395C11.1735 11.1082 9.64725 10.323 9.3435 10.167C9.2355 10.1115 9.1185 10.0845 9.00075 10.0845C8.88375 10.0845 8.76675 10.1122 8.6595 10.167C8.6595 10.167 6.65175 11.1945 6.57675 11.2343C6.49725 11.268 6.312 11.2537 6.1815 11.1233C6.04875 10.9868 6.00975 10.7963 6.0825 10.6365C6.21975 10.3822 6.71175 9.45525 8.60475 5.89125C8.718 5.66475 8.92575 5.63925 9.00975 5.63925C9.111 5.65275 9.30225 5.66175 9.429 5.9115C9.44925 5.94825 11.4742 9.60675 11.9167 10.6305H11.916ZM18 9C18 13.9628 13.9628 18 9 18C4.03725 18 0 13.9628 0 9C0 4.03725 4.03725 0 9 0C13.9628 0 18 4.03725 18 9ZM13.29 10.0297C12.8205 8.9445 10.8255 5.33775 10.7528 5.208C10.4175 4.548 9.75 4.1385 9.0105 4.1385H9.0045C8.26275 4.14075 7.5945 4.55475 7.2705 5.20275C7.2705 5.20275 4.77975 9.89175 4.7385 9.969C4.731 9.98325 4.72275 9.99825 4.7175 10.0125C4.38525 10.74 4.5375 11.5867 5.11125 12.1755C5.655 12.7215 6.4755 12.9 7.2015 12.5963C7.2945 12.549 8.418 11.9745 8.9985 11.6775C9.6975 12.0375 10.5247 12.468 10.6898 12.5618C10.9523 12.687 11.2358 12.75 11.5185 12.75C11.784 12.75 12.051 12.6953 12.3 12.585C12.774 12.3758 13.137 11.994 13.3237 11.511C13.5097 11.0272 13.4963 10.4993 13.2885 10.0297H13.29Z" fill="#CBE1F6"/>
</svg>
