<svg width="14" height="14" viewBox="0 0 14 14" fill="none" xmlns="http://www.w3.org/2000/svg">
<path d="M13.6111 7.00004C13.6064 6.48855 13.4003 5.99953 13.0375 5.63893L8.86667 1.45837C8.68451 1.2773 8.4381 1.17566 8.18125 1.17566C7.9244 1.17566 7.67799 1.2773 7.49583 1.45837C7.40471 1.54876 7.33238 1.65628 7.28302 1.77476C7.23366 1.89323 7.20825 2.02031 7.20825 2.14865C7.20825 2.277 7.23366 2.40407 7.28302 2.52255C7.33238 2.64102 7.40471 2.74855 7.49583 2.83893L10.6944 6.02782H0.972222C0.714373 6.02782 0.467084 6.13025 0.284757 6.31258C0.10243 6.4949 0 6.74219 0 7.00004C0 7.25789 0.10243 7.50518 0.284757 7.68751C0.467084 7.86983 0.714373 7.97226 0.972222 7.97226H10.6944L7.49583 11.1709C7.31276 11.3527 7.2094 11.5997 7.20849 11.8577C7.20758 12.1157 7.30919 12.3635 7.49097 12.5466C7.67276 12.7296 7.91982 12.833 8.17781 12.8339C8.43581 12.8348 8.68359 12.7332 8.86667 12.5514L13.0375 8.37087C13.4027 8.00789 13.6089 7.51491 13.6111 7.00004Z" fill="url(#paint0_linear_9_118)"/>
<defs>
<linearGradient id="paint0_linear_9_118" x1="0.311111" y1="7.00479" x2="13.6111" y2="7.00479" gradientUnits="userSpaceOnUse">
<stop stop-color="#F9942B"/>
<stop offset="1" stop-color="#A53143"/>
</linearGradient>
</defs>
</svg>
