<svg width="14" height="14" viewBox="0 0 14 14" fill="none" xmlns="http://www.w3.org/2000/svg">
<path d="M13.6111 6.99998C13.6064 6.48849 13.4003 5.99946 13.0375 5.63887L8.86667 1.45831C8.68451 1.27724 8.4381 1.1756 8.18125 1.1756C7.9244 1.1756 7.67799 1.27724 7.49583 1.45831C7.40471 1.54869 7.33238 1.65622 7.28302 1.7747C7.23366 1.89317 7.20825 2.02025 7.20825 2.14859C7.20825 2.27694 7.23366 2.40401 7.28302 2.52249C7.33238 2.64096 7.40471 2.74849 7.49583 2.83887L10.6944 6.02776H0.972222C0.714373 6.02776 0.467084 6.13019 0.284757 6.31252C0.10243 6.49484 0 6.74213 0 6.99998C0 7.25783 0.10243 7.50512 0.284757 7.68745C0.467084 7.86977 0.714373 7.9722 0.972222 7.9722H10.6944L7.49583 11.1708C7.31276 11.3526 7.2094 11.5997 7.20849 11.8577C7.20758 12.1156 7.30919 12.3634 7.49097 12.5465C7.67276 12.7296 7.91982 12.8329 8.17781 12.8339C8.43581 12.8348 8.68359 12.7332 8.86667 12.5514L13.0375 8.37081C13.4027 8.00783 13.6089 7.51485 13.6111 6.99998Z" fill="white"/>
</svg>
