<svg width="32" height="32" viewBox="0 0 32 32" fill="none" xmlns="http://www.w3.org/2000/svg">
<g clip-path="url(#clip0_21_266)">
<path d="M14.6667 31.3333C14.6667 31.7013 14.368 32 14 32H6C2.692 32 0 29.308 0 26V6C0 2.692 2.692 0 6 0H18C21.308 0 24 2.692 24 6V11.3333C24 11.7013 23.7013 12 23.3333 12C22.9653 12 22.6667 11.7013 22.6667 11.3333V6C22.6667 3.42667 20.5733 1.33333 18 1.33333H6C3.42667 1.33333 1.33333 3.42667 1.33333 6V26C1.33333 28.5733 3.42667 30.6667 6 30.6667H14C14.368 30.6667 14.6667 30.9653 14.6667 31.3333ZM18.6667 7.33333C18.6667 6.96533 18.368 6.66667 18 6.66667H6C5.632 6.66667 5.33333 6.96533 5.33333 7.33333C5.33333 7.70133 5.632 8 6 8H18C18.368 8 18.6667 7.70133 18.6667 7.33333ZM16 14C16 13.632 15.7013 13.3333 15.3333 13.3333H6C5.632 13.3333 5.33333 13.632 5.33333 14C5.33333 14.368 5.632 14.6667 6 14.6667H15.3333C15.7013 14.6667 16 14.368 16 14ZM6 20C5.632 20 5.33333 20.2987 5.33333 20.6667C5.33333 21.0347 5.632 21.3333 6 21.3333H11.3333C11.7013 21.3333 12 21.0347 12 20.6667C12 20.2987 11.7013 20 11.3333 20H6ZM32 23.3333C32 28.112 28.112 32 23.3333 32C18.5547 32 14.6667 28.112 14.6667 23.3333C14.6667 18.5547 18.5547 14.6667 23.3333 14.6667C28.112 14.6667 32 18.5547 32 23.3333ZM30.6667 23.3333C30.6667 19.2907 27.376 16 23.3333 16C19.2907 16 16 19.2907 16 23.3333C16 27.376 19.2907 30.6667 23.3333 30.6667C27.376 30.6667 30.6667 27.376 30.6667 23.3333ZM26.204 22.16L23.2467 24.9987C22.7987 25.4413 22.0653 25.4413 21.6147 25.0013L20.1067 23.524C19.8453 23.2693 19.4227 23.2707 19.164 23.5347C18.9067 23.7973 18.912 24.22 19.1747 24.4773L20.6827 25.9547C21.1653 26.4267 21.8 26.6627 22.432 26.6627C23.064 26.6627 23.6987 26.4253 24.1787 25.9533L27.1293 23.1213C27.3947 22.868 27.4027 22.444 27.148 22.1787C26.8947 21.9147 26.4707 21.9053 26.204 22.16Z" fill="#FF832B"/>
</g>
<defs>
<clipPath id="clip0_21_266">
<rect width="32" height="32" fill="white"/>
</clipPath>
</defs>
</svg>
