<svg width="16" height="16" viewBox="0 0 16 16" fill="none" xmlns="http://www.w3.org/2000/svg">
<g clip-path="url(#clip0_1_308)">
<path d="M13.3333 8C11.8627 8 10.6667 9.196 10.6667 10.6667C10.6667 11.6493 11.2067 12.5 12 12.9627V15.5807C12 15.9533 12.4507 16.14 12.7147 15.8767L13.3333 15.258L13.952 15.8767C14.2153 16.14 14.6667 15.9533 14.6667 15.5807V12.9627C15.46 12.5 16 11.6493 16 10.6667C16 9.196 14.804 8 13.3333 8ZM13.3333 12C12.598 12 12 11.402 12 10.6667C12 9.93133 12.598 9.33333 13.3333 9.33333C14.0687 9.33333 14.6667 9.93133 14.6667 10.6667C14.6667 11.402 14.0687 12 13.3333 12ZM4 3C4 3.552 3.552 4 3 4C2.448 4 2 3.552 2 3C2 2.448 2.448 2 3 2C3.552 2 4 2.448 4 3ZM6.66667 3C6.66667 3.552 6.21867 4 5.66667 4C5.11467 4 4.66667 3.552 4.66667 3C4.66667 2.448 5.11467 2 5.66667 2C6.21867 2 6.66667 2.448 6.66667 3ZM12.6667 0H3.33333C1.49533 0 0 1.49533 0 3.33333V11.3333C0 13.1713 1.49533 14.6667 3.33333 14.6667H10C10.368 14.6667 10.6667 14.368 10.6667 14C10.6667 13.632 10.368 13.3333 10 13.3333H3.33333C2.23067 13.3333 1.33333 12.436 1.33333 11.3333V6H14.6667V6.66667C14.6667 7.03467 14.9653 7.33333 15.3333 7.33333C15.7013 7.33333 16 7.03467 16 6.66667V3.33333C16 1.49533 14.5047 0 12.6667 0ZM1.33333 4.66667V3.33333C1.33333 2.23067 2.23067 1.33333 3.33333 1.33333H12.6667C13.7693 1.33333 14.6667 2.23067 14.6667 3.33333V4.66667H1.33333ZM3.052 10.84C3.63933 10.306 4.47133 10 5.33333 10C6.19533 10 7.02733 10.306 7.61467 10.84C7.88733 11.0873 7.90733 11.5093 7.66 11.782C7.412 12.0553 6.99 12.074 6.718 11.8273C6.02733 11.2007 4.63867 11.2007 3.948 11.8273C3.676 12.0753 3.254 12.054 3.006 11.782C2.75867 11.5093 2.77933 11.0873 3.052 10.84ZM5.33333 9.33533C4.59667 9.33533 4 8.73867 4 8.002C4 7.26533 4.59667 6.66867 5.33333 6.66867C6.07 6.66867 6.66667 7.26533 6.66667 8.002C6.66667 8.73867 6.07 9.33533 5.33333 9.33533Z" fill="url(#paint0_linear_1_308)"/>
</g>
<defs>
<linearGradient id="paint0_linear_1_308" x1="0.365714" y1="7.99994" x2="16" y2="7.99994" gradientUnits="userSpaceOnUse">
<stop stop-color="#F9942B"/>
<stop offset="1" stop-color="#A53143"/>
</linearGradient>
<clipPath id="clip0_1_308">
<rect width="16" height="16" fill="white"/>
</clipPath>
</defs>
</svg>
