<svg width="14" height="14" viewBox="0 0 14 14" fill="none" xmlns="http://www.w3.org/2000/svg">
<g clip-path="url(#clip0_61_1420)">
<path d="M13.5867 5.58432C13.3586 5.35624 12.9888 5.35624 12.7606 5.58432L6.39703 11.9754C5.25622 13.1163 3.40651 13.1165 2.26553 11.9757C1.12456 10.8349 1.12445 8.98517 2.26523 7.84419L8.42845 1.65586C9.1184 0.976897 10.2282 0.985797 10.9071 1.67574C11.5783 2.35778 11.5784 3.45203 10.9074 4.13423L4.7442 10.3226C4.51325 10.5438 4.14901 10.5438 3.91809 10.3226C3.69001 10.0944 3.69001 9.72458 3.91809 9.49645L9.40532 3.9841C9.62948 3.752 9.62307 3.38214 9.39097 3.15798C9.16457 2.9393 8.80562 2.9393 8.57921 3.15798L3.09197 8.67034C2.40742 9.35475 2.40734 10.4645 3.09175 11.1491C3.09184 11.1492 3.09189 11.1492 3.09197 11.1493C3.7857 11.8113 4.87719 11.8113 5.57092 11.1493L11.7335 4.9604C12.8597 3.80515 12.8361 1.95569 11.6809 0.829502C10.5463 -0.27661 8.73677 -0.276473 7.60234 0.829749L1.43912 7.01805C-0.158091 8.61526 -0.158091 11.2049 1.43912 12.8021C3.03632 14.3993 5.62594 14.3993 7.22314 12.8021L13.5867 6.41279C13.8155 6.18523 13.8165 5.81532 13.589 5.58654C13.5882 5.5858 13.5875 5.58506 13.5867 5.58432Z" fill="white"/>
</g>
<defs>
<clipPath id="clip0_61_1420">
<rect width="14" height="14" fill="white"/>
</clipPath>
</defs>
</svg>
