<svg width="24" height="24" viewBox="0 0 24 24" fill="none" xmlns="http://www.w3.org/2000/svg">
<path d="M17.8538 17.146C18.0488 17.341 18.0488 17.658 17.8538 17.853C17.7558 17.951 17.6278 17.999 17.4998 17.999C17.3718 17.999 17.2438 17.95 17.1458 17.853L11.9998 12.707L6.85376 17.853C6.75576 17.951 6.62776 17.999 6.49976 17.999C6.37176 17.999 6.24376 17.95 6.14576 17.853C5.95076 17.658 5.95076 17.341 6.14576 17.146L11.2918 12L6.14576 6.854C5.95076 6.659 5.95076 6.342 6.14576 6.147C6.34076 5.952 6.65776 5.952 6.85276 6.147L11.9988 11.293L17.1448 6.147C17.3398 5.952 17.6568 5.952 17.8518 6.147C18.0468 6.342 18.0468 6.659 17.8518 6.854L12.7058 12L17.8518 17.146H17.8538Z" fill="white"/>
</svg>
