<svg width="12" height="12" viewBox="0 0 12 12" fill="none" xmlns="http://www.w3.org/2000/svg">
<g clip-path="url(#clip0_51_975)">
<path d="M6.82861 3.76649C6.82861 3.90449 6.94061 4.01649 7.07861 4.01649C7.52161 4.01649 7.88161 4.38399 7.88161 4.83549C7.88161 4.97349 7.99361 5.08549 8.13161 5.08549C8.26961 5.08549 8.38161 4.97349 8.38161 4.83549C8.38161 4.10799 7.79711 3.51649 7.07861 3.51649C6.94061 3.51649 6.82861 3.62849 6.82861 3.76649Z" fill="#CBE1F6"/>
<path d="M6.93652 1.875C8.65852 1.875 10.06 3.299 10.06 5.049C10.06 5.187 10.172 5.299 10.31 5.299C10.448 5.299 10.56 5.187 10.56 5.049C10.56 3.0235 8.93452 1.375 6.93652 1.375C6.79852 1.375 6.68652 1.487 6.68652 1.625C6.68652 1.763 6.79852 1.875 6.93652 1.875Z" fill="#CBE1F6"/>
<path d="M11.3939 8.1565C11.1699 7.4685 10.6129 6.9285 9.90488 6.7125C9.09438 6.464 8.21588 6.673 7.61388 7.256L7.40288 7.4605C6.80338 7.31 6.00038 6.738 5.62288 6.376C5.23988 5.984 4.67588 5.1835 4.52638 4.609L4.73088 4.4015C5.31988 3.803 5.53038 2.9315 5.27988 2.1255C5.06138 1.4225 4.51738 0.870499 3.82388 0.648499C3.02688 0.392999 2.16438 0.606999 1.59238 1.19C1.53638 1.2365 0.221379 2.3485 0.552379 4.1385C0.889379 5.847 2.11038 7.711 3.17738 8.8065C4.27738 9.859 6.15688 11.07 7.87938 11.4035C8.07988 11.44 8.27188 11.4565 8.45538 11.4565C9.85738 11.4565 10.7334 10.5035 10.8379 10.3835C11.4379 9.797 11.6504 8.9445 11.3934 8.1555L11.3939 8.1565ZM10.4824 10.033C10.4764 10.039 10.4704 10.045 10.4649 10.0515C10.4549 10.063 9.48938 11.187 7.97238 10.9125C6.36088 10.6005 4.53688 9.415 3.53038 8.4515C2.55388 7.4485 1.35938 5.6405 1.04438 4.0445C0.767879 2.5515 1.86538 1.6135 1.93038 1.5575C2.26088 1.2225 2.70038 1.0425 3.15088 1.0425C3.32488 1.0425 3.50088 1.069 3.67238 1.124C4.21038 1.2965 4.63338 1.726 4.80338 2.273C4.99888 2.902 4.83488 3.583 4.37588 4.0495L4.07688 4.3525C4.02088 4.4095 3.99538 4.4895 4.00788 4.568C4.12438 5.2865 4.81388 6.2615 5.27188 6.73C5.73938 7.179 6.72188 7.863 7.44338 7.978C7.52038 7.9905 7.59988 7.9655 7.65688 7.9105L7.96238 7.6145C8.43338 7.158 9.12088 6.994 9.75938 7.1895C10.3119 7.3585 10.7454 7.7775 10.9189 8.3105C11.1174 8.92 10.9504 9.5795 10.4829 10.0325L10.4824 10.033Z" fill="#CBE1F6"/>
</g>
<defs>
<clipPath id="clip0_51_975">
<rect width="12" height="12" fill="white"/>
</clipPath>
</defs>
</svg>
