<svg width="18" height="18" viewBox="0 0 18 18" fill="none" xmlns="http://www.w3.org/2000/svg">
<path d="M6.375 6.0525C6.495 6.021 6.61875 5.99925 6.7485 5.99925L11.2432 5.9955H11.2448C11.3798 5.9955 11.5095 6.0195 11.6363 6.05325L9.747 7.9425C9.35175 8.33775 8.661 8.33775 8.265 7.9425L6.37425 6.05175L6.375 6.0525ZM10.8075 9.00375C10.3267 9.48525 9.687 9.75 9.00675 9.75C8.3265 9.75 7.686 9.4845 7.20525 9.00375L5.30925 7.107C5.27475 7.233 5.25075 7.36275 5.25075 7.49925V9.7485C5.25075 10.1497 5.40675 10.5262 5.69025 10.8097C5.97375 11.0933 6.35025 11.2485 6.75075 11.2485L11.2455 11.2463C12.0728 11.2463 12.7448 10.5728 12.7448 9.74625V7.49625C12.7448 7.36725 12.723 7.242 12.6915 7.1205L10.8075 9.00375ZM18 9C18 13.9628 13.9628 18 9 18C4.03725 18 0 13.9628 0 9C0 4.03725 4.03725 0 9 0C13.9628 0 18 4.03725 18 9ZM14.2448 7.4955C14.2448 6.69375 13.932 5.94 13.365 5.373C12.798 4.8075 12.045 4.4955 11.2448 4.4955H11.2418L6.747 4.49925C5.09475 4.50075 3.75 5.84625 3.75 7.49925V9.7485C3.75 10.5503 4.062 11.304 4.629 11.8702C5.196 12.4365 5.949 12.7485 6.75 12.7485H6.75225L11.247 12.7463C12.9 12.7455 14.2448 11.3993 14.2448 9.74625V7.4955Z" fill="#CBE1F6"/>
</svg>
