<svg width="18" height="18" viewBox="0 0 18 18" fill="none" xmlns="http://www.w3.org/2000/svg">
<path d="M9 0C4.03725 0 0 4.03725 0 9C0 13.9628 4.03725 18 9 18C13.9628 18 18 13.9628 18 9C18 4.03725 13.9628 0 9 0ZM13.2488 12.4403L12.8573 12.8903C12.444 13.3042 11.8995 13.5 11.3573 13.5C8.57175 13.5 4.5 9.64275 4.5 6.64275C4.5 6.1005 4.69575 5.556 5.10975 5.14275L5.55975 4.75125C5.89425 4.41675 6.43725 4.41675 6.77175 4.75125L7.52175 5.72775C7.85625 6.06225 7.85625 6.60525 7.52175 6.93975L6.8835 7.7415C7.55925 9.4245 8.70525 10.524 10.2585 11.1165L11.0602 10.4782C11.3947 10.1438 11.9378 10.1438 12.2723 10.4782L13.2488 11.2282C13.5833 11.5627 13.5833 12.1058 13.2488 12.4403Z" fill="#CBE1F6"/>
</svg>
