<svg width="64" height="64" viewBox="0 0 64 64" fill="none" xmlns="http://www.w3.org/2000/svg">
<rect x="0.5" y="0.5" width="63" height="63" rx="31.5" fill="#0E1027"/>
<rect x="0.5" y="0.5" width="63" height="63" rx="31.5" stroke="#1E2446"/>
<g clip-path="url(#clip0_51_192)">
<path d="M38.6483 28.6483C38.6483 24.9717 35.6583 21.9817 31.9817 21.9817C28.305 21.9817 25.315 24.9717 25.315 28.6483C25.315 32.325 28.305 35.315 31.9817 35.315C35.6583 35.315 38.6483 32.325 38.6483 28.6483ZM31.9817 33.6483C29.225 33.6483 26.9817 31.405 26.9817 28.6483C26.9817 25.8917 29.225 23.6483 31.9817 23.6483C34.7383 23.6483 36.9817 25.8917 36.9817 28.6483C36.9817 31.405 34.7383 33.6483 31.9817 33.6483ZM51.045 42.165L45.3067 36.61C45.3033 36.2367 45.26 35.865 45.1767 35.4983C44.9767 34.62 45.38 33.685 46.1783 33.17C46.925 32.6867 47.5333 32.03 47.9833 31.2167C48.4083 30.45 48.63 29.5667 48.6267 28.67C48.63 27.7667 48.4083 26.8833 47.9833 26.1167C47.5317 25.3033 46.925 24.6467 46.1767 24.1633C45.3783 23.6483 44.9767 22.7133 45.175 21.8367C45.3783 20.95 45.3483 20.035 45.085 19.12C44.5917 17.4033 43.22 16.0333 41.5067 15.5433C40.595 15.2817 39.6817 15.25 38.7933 15.4517C37.9217 15.6533 36.9817 15.25 36.4667 14.4517C35.9833 13.705 35.3267 13.0983 34.515 12.6467C32.9533 11.7817 31.015 11.7817 29.4533 12.6467C28.64 13.0983 27.9833 13.7067 27.5017 14.4533C26.9867 15.2517 26.0483 15.655 25.175 15.4533C24.2867 15.2517 23.3733 15.2833 22.4617 15.545C20.7467 16.0367 19.375 17.4067 18.8833 19.1233C18.6217 20.0367 18.59 20.95 18.7917 21.8383C18.9917 22.715 18.59 23.65 17.7917 24.165C17.0433 24.6483 16.435 25.3067 15.9867 26.1167C15.5617 26.8833 15.34 27.7667 15.3433 28.665C15.34 29.57 15.5617 30.4533 15.9867 31.2183C16.4367 32.03 17.0433 32.6883 17.7933 33.1717C18.5917 33.6867 18.9933 34.6217 18.7933 35.4983C18.7083 35.8767 18.665 36.26 18.6633 36.6467L12.9633 42.165C12.08 43.0167 11.78 44.2667 12.18 45.4267C12.58 46.5867 13.5867 47.3867 14.8083 47.5133L16.6983 47.7083L16.9217 49.3183C17.085 50.4917 17.8833 51.4583 19.0033 51.84C19.3367 51.9533 19.6783 52.01 20.0183 52.01C20.8167 52.01 21.5967 51.7 22.19 51.1217L29.07 44.4533C29.195 44.535 29.3233 44.615 29.4567 44.6883C30.2367 45.12 31.1117 45.3367 31.9867 45.3367C32.8617 45.3367 33.7367 45.12 34.5183 44.6867C34.66 44.6083 34.795 44.525 34.9267 44.4367L41.82 51.1167C42.415 51.6983 43.195 52.0083 43.995 52.0083C44.3333 52.0083 44.6767 51.9517 45.0083 51.8383C46.1283 51.4567 46.9267 50.49 47.09 49.3167L47.3133 47.7067L49.2033 47.5117C50.425 47.385 51.4317 46.585 51.8317 45.425C52.2317 44.265 51.9317 43.015 51.0483 42.1633L51.045 42.165ZM21.0217 49.9267C20.6233 50.3183 20.0683 50.4433 19.5367 50.2617C19.0067 50.0817 18.6433 49.6417 18.5667 49.0867L18.2533 46.83C18.2 46.45 17.895 46.155 17.5133 46.115L14.9733 45.8533C14.3967 45.7933 13.9383 45.4317 13.75 44.8817C13.5617 44.3333 13.6967 43.7667 14.1167 43.3617L19.0167 38.6183C19.595 40.1417 20.8817 41.3383 22.4583 41.7883C23.3717 42.05 24.2867 42.0817 25.1717 41.88C26.0467 41.6833 26.9833 42.0833 27.4983 42.88C27.6 43.0367 27.7083 43.1867 27.825 43.3317L21.0217 49.9267ZM30.26 43.2283C29.6883 42.9133 29.2317 42.4917 28.9 41.9767C28.1633 40.8333 26.9133 40.1633 25.6217 40.1633C25.3483 40.1633 25.075 40.1933 24.8033 40.255C24.1933 40.3933 23.5583 40.3717 22.9183 40.1867C21.7683 39.8583 20.8133 38.9017 20.4833 37.7533C20.3 37.1117 20.2767 36.4767 20.415 35.8667C20.7683 34.3083 20.0767 32.6633 18.6933 31.77C18.1767 31.4367 17.7567 30.9783 17.4417 30.4083C17.155 29.8917 17.005 29.29 17.0067 28.6633C17.005 28.0417 17.1533 27.4417 17.4417 26.9233C17.7567 26.3533 18.1783 25.8967 18.6933 25.5633C20.0783 24.67 20.77 23.025 20.415 21.4667C20.2767 20.8567 20.3 20.2217 20.4833 19.58C20.8133 18.43 21.7683 17.475 22.9183 17.145C23.56 16.9633 24.195 16.9383 24.8033 17.0767C26.36 17.4317 28.0083 16.74 28.9 15.355C29.2317 14.84 29.6883 14.4183 30.2583 14.1033C31.305 13.5217 32.6567 13.5233 33.7033 14.1033C34.2733 14.42 34.7317 14.8417 35.0633 15.355C35.955 16.74 37.6 17.4267 39.16 17.0767C39.77 16.9383 40.405 16.9617 41.045 17.145C42.195 17.4733 43.1517 18.43 43.4817 19.5783C43.665 20.22 43.6883 20.855 43.5483 21.465C43.195 23.0233 43.8883 24.6683 45.27 25.5617C45.785 25.895 46.2067 26.3517 46.5217 26.9233C46.8083 27.4417 46.9583 28.0433 46.9567 28.6683C46.9583 29.2883 46.81 29.89 46.5217 30.4067C46.2067 30.9783 45.785 31.435 45.27 31.7683C43.8867 32.66 43.1933 34.3067 43.5483 35.865C43.6867 36.475 43.665 37.11 43.48 37.75C43.15 38.9 42.1933 39.8567 41.0433 40.185C40.4033 40.3683 39.7683 40.39 39.1583 40.2533C37.5983 39.9033 35.9533 40.5917 35.0617 41.975C34.7283 42.49 34.2717 42.9117 33.7017 43.2267C32.655 43.8083 31.3017 43.8083 30.2567 43.2267L30.26 43.2283ZM50.2517 44.8817C50.0617 45.4317 49.605 45.7933 49.0283 45.8533L46.4883 46.115C46.1067 46.155 45.8017 46.45 45.7483 46.83L45.435 49.0867C45.3583 49.6417 44.995 50.08 44.465 50.2617C43.9383 50.4417 43.3817 50.3183 42.9783 49.9233L36.155 43.31C36.265 43.1717 36.3683 43.0283 36.465 42.88C36.9817 42.0833 37.9217 41.6817 38.7917 41.88C39.6783 42.08 40.5917 42.0517 41.505 41.7883C43.0917 41.335 44.3833 40.1267 44.9583 38.59L49.8867 43.3617C50.305 43.765 50.4417 44.335 50.2517 44.8817Z" fill="#7877D5"/>
</g>
<defs>
<clipPath id="clip0_51_192">
<rect width="40" height="40" fill="white" transform="translate(12 12)"/>
</clipPath>
</defs>
</svg>
