<svg width="64" height="64" viewBox="0 0 64 64" fill="none" xmlns="http://www.w3.org/2000/svg">
<rect x="0.5" y="0.5" width="63" height="63" rx="31.5" fill="#0E1027"/>
<rect x="0.5" y="0.5" width="63" height="63" rx="31.5" stroke="#1E2446"/>
<path d="M34.6833 24.7017L30.9333 39.7017C30.8233 40.1517 30.3583 40.42 29.9233 40.3084C29.4767 40.1967 29.205 39.745 29.3167 39.2984L33.0667 24.2984C33.1767 23.8517 33.6267 23.5767 34.0767 23.6917C34.5233 23.8034 34.795 24.255 34.6833 24.7017ZM50.3333 31.995C50.3183 34.565 49.1083 35.9767 46.5233 36.4484C46.2483 36.4984 46.015 36.67 45.885 36.9184C45.7017 37.265 45.5017 37.6117 45.2817 37.96C45.0833 38.2734 45.0967 38.6734 45.315 38.975C46.905 41.1834 46.785 43.0734 44.9367 44.9234C43.0833 46.7784 41.1933 46.8984 38.99 45.305C38.69 45.0884 38.2933 45.075 37.9817 45.27C37.6367 45.4867 37.29 45.6867 36.9483 45.8667C36.6983 45.9967 36.5267 46.23 36.4767 46.5084C36.01 49.0817 34.545 50.3317 32.0017 50.3317C29.4583 50.3317 27.9933 49.0817 27.5267 46.5084C27.4767 46.23 27.305 45.9967 27.055 45.8667C26.7117 45.6867 26.365 45.4867 26.02 45.27C25.7067 45.075 25.3117 45.0867 25.0117 45.305C22.81 46.8984 20.9183 46.7784 19.065 44.9234C17.2167 43.0734 17.0967 41.1834 18.6867 38.975C18.9033 38.6734 18.9167 38.275 18.7183 37.96C18.4983 37.6117 18.2983 37.265 18.1167 36.9184C17.985 36.67 17.7533 36.5 17.4783 36.4484C14.8933 35.975 13.6833 34.5634 13.6683 32.0034V31.9934C13.6833 29.4334 14.8933 28.0217 17.4783 27.5484C17.7533 27.4984 17.9867 27.3267 18.1167 27.0784C18.3 26.7317 18.5 26.385 18.72 26.0367C18.9183 25.7234 18.905 25.3234 18.6867 25.0217C17.0967 22.8134 17.2167 20.9234 19.065 19.0734C20.9167 17.2184 22.8083 17.0967 25.0117 18.6917C25.3117 18.9067 25.7067 18.9217 26.02 18.7267C26.365 18.51 26.7117 18.31 27.0533 18.13C27.3033 18 27.475 17.7667 27.525 17.4884C27.9917 14.915 29.4567 13.665 32 13.665C34.5433 13.665 36.0083 14.915 36.475 17.4884C36.525 17.7667 36.6967 18 36.9467 18.13C37.29 18.31 37.6367 18.51 37.9817 18.7267C38.295 18.9217 38.69 18.91 38.99 18.6917C41.1933 17.0967 43.085 17.2184 44.9367 19.0734C46.785 20.9234 46.905 22.8134 45.315 25.0217C45.0983 25.3234 45.085 25.7217 45.2833 26.0367C45.5033 26.385 45.7033 26.7317 45.885 27.0784C46.0167 27.3267 46.2483 27.4967 46.5233 27.5484C49.1083 28.0217 50.3183 29.435 50.3333 31.995ZM48.6667 31.995C48.6567 30.255 48.0167 29.5184 46.225 29.19C45.4433 29.0484 44.7833 28.5634 44.4117 27.86C44.2483 27.55 44.0683 27.24 43.8717 26.9267C43.3133 26.0367 43.3483 24.9084 43.9617 24.0517C45.0733 22.5084 45.0183 21.515 43.7583 20.2534C42.4933 18.9884 41.5017 18.9334 39.9667 20.045C39.1133 20.66 37.9867 20.7 37.0967 20.1417C36.785 19.9467 36.4767 19.7684 36.1717 19.6084C35.465 19.2384 34.9783 18.575 34.835 17.7884C34.5133 16.0217 33.7183 15.3334 31.9983 15.3334C30.2783 15.3334 29.4833 16.0217 29.1617 17.7884C29.02 18.575 28.5317 19.2384 27.825 19.6084C27.52 19.7684 27.2117 19.9467 26.9017 20.14C26.01 20.7017 24.8833 20.66 24.0317 20.0434C22.4967 18.9334 21.505 18.99 20.24 20.2517C18.98 21.5134 18.9267 22.5067 20.0367 24.0484C20.6517 24.905 20.6867 26.0334 20.1267 26.9234C19.93 27.2367 19.75 27.5484 19.5867 27.8584C19.2167 28.56 18.555 29.045 17.775 29.1884C15.9833 29.5167 15.345 30.2517 15.3333 31.9984C15.345 33.745 15.985 34.48 17.775 34.8084C18.5567 34.95 19.2167 35.435 19.5883 36.1384C19.7517 36.4484 19.9317 36.7584 20.1283 37.0717C20.6867 37.9617 20.6517 39.09 20.0383 39.9467C18.9267 41.49 18.9817 42.4834 20.2417 43.745C21.5067 45.0084 22.4983 45.065 24.0333 43.9534C24.485 43.6284 25.0117 43.4634 25.54 43.4634C26.0117 43.4634 26.4833 43.5934 26.9033 43.8567C27.215 44.0517 27.5233 44.23 27.8283 44.39C28.535 44.76 29.0217 45.4234 29.165 46.21C29.4867 47.9767 30.2817 48.665 32.0017 48.665C33.7217 48.665 34.5167 47.9767 34.8383 46.21C34.98 45.4234 35.4683 44.76 36.175 44.39C36.48 44.23 36.7883 44.0517 37.0983 43.8584C37.9917 43.3 39.1183 43.3384 39.9683 43.955C41.5033 45.0667 42.4983 45.0117 43.76 43.7467C45.02 42.485 45.0733 41.4917 43.9633 39.95C43.3483 39.0934 43.3133 37.965 43.8733 37.075C44.07 36.7617 44.25 36.45 44.4133 36.14C44.7833 35.4384 45.445 34.9534 46.225 34.81C48.0183 34.4817 48.6567 33.745 48.6667 31.995ZM27.5 28.5C27.8683 28.2234 27.9433 27.7017 27.6667 27.3334C27.3917 26.965 26.87 26.89 26.5 27.1667C24.8567 28.3984 23.3983 29.8567 22.1667 31.5C21.945 31.7967 21.945 32.2034 22.1667 32.5C23.3983 34.1434 24.8567 35.6017 26.5 36.8334C26.865 37.1084 27.39 37.0367 27.6667 36.6667C27.9433 36.2984 27.8683 35.7767 27.5 35.5C26.1517 34.49 24.9383 33.3134 23.8883 32C24.94 30.6867 26.1533 29.51 27.5 28.5ZM37.5 27.1667C37.1333 26.89 36.61 26.965 36.3333 27.3334C36.0567 27.7017 36.1317 28.2234 36.5 28.5C37.8483 29.51 39.0617 30.6867 40.1117 32C39.06 33.3134 37.8467 34.49 36.5 35.5C36.1317 35.7767 36.0567 36.2984 36.3333 36.6667C36.61 37.0384 37.135 37.1084 37.5 36.8334C39.1433 35.6017 40.6017 34.1434 41.8333 32.5C42.055 32.2034 42.055 31.7967 41.8333 31.5C40.6017 29.8567 39.1433 28.3984 37.5 27.1667Z" fill="#7877D5"/>
</svg>
