<svg width="64" height="64" viewBox="0 0 64 64" fill="none" xmlns="http://www.w3.org/2000/svg">
<rect x="0.5" y="0.5" width="63" height="63" rx="31.5" fill="#0E1027"/>
<rect x="0.5" y="0.5" width="63" height="63" rx="31.5" stroke="#1E2446"/>
<g clip-path="url(#clip0_51_194)">
<path d="M37.8333 22C35.5367 22 33.6667 23.87 33.6667 26.1667C33.6667 28.4633 35.5367 30.3333 37.8333 30.3333C40.13 30.3333 42 28.4633 42 26.1667C42 23.87 40.13 22 37.8333 22ZM37.8333 28.6667C36.455 28.6667 35.3333 27.545 35.3333 26.1667C35.3333 24.7883 36.455 23.6667 37.8333 23.6667C39.2117 23.6667 40.3333 24.7883 40.3333 26.1667C40.3333 27.545 39.2117 28.6667 37.8333 28.6667ZM52 16.24C52 13.9017 50.0967 12 47.735 12C39.135 12.245 32.2433 15.7817 26.2533 23.075C23.5533 23.1067 20.8583 23.7617 18.4433 24.9733C15.5733 26.415 13.2933 28.5883 12.3417 30.7867C11.7433 32.17 11.9017 33.8333 12.7533 35.1283C13.535 36.3167 14.7533 36.9983 16.0967 36.9983H20.3317C22.5417 36.9983 24.2233 37.56 25.33 38.6667C26.4683 39.805 26.9983 41.34 26.9983 43.4983V47.7333C26.9983 49.1067 27.7333 50.4083 28.965 51.2183C29.7533 51.7367 30.6433 52.0017 31.5233 52.0017C32.1017 52.0017 32.6733 51.8883 33.21 51.655C35.4083 50.705 37.5833 48.425 39.0233 45.5533C40.235 43.14 40.89 40.445 40.9217 37.7433C48.215 31.755 51.7517 24.86 51.9967 16.2383L52 16.24ZM14.1483 34.215C13.6017 33.3817 13.4967 32.3233 13.8733 31.4483C14.6733 29.5983 16.6617 27.7333 19.1917 26.4633C20.9683 25.5717 22.9133 25.0133 24.8933 24.8183C24.7183 25.0533 24.5433 25.2917 24.37 25.535C21.6983 29.26 19.6017 33.8167 18.9333 35.3333H16.0983C15.325 35.3333 14.615 34.925 14.1483 34.215ZM37.5383 44.8067C36.2667 47.3383 34.4033 49.325 32.5533 50.125C31.73 50.4833 30.7083 50.365 29.8833 49.825C29.1117 49.3167 28.6683 48.555 28.6683 47.7333V44.9117C30.2067 44.275 34.75 42.2933 38.4667 39.6267C38.7083 39.4533 38.9467 39.2783 39.1833 39.1033C38.9883 41.0833 38.43 43.03 37.5383 44.8067ZM37.495 38.275C34.3733 40.5133 30.5317 42.295 28.6617 43.1033C28.5933 40.705 27.8867 38.865 26.5117 37.4883C25.1583 36.135 23.225 35.4133 20.7617 35.3383C21.6217 33.4583 23.49 29.625 25.7267 26.505C31.8217 18.0017 38.83 13.9217 47.76 13.6667C49.18 13.6667 50.3333 14.8217 50.3333 16.2167C50.0783 25.17 45.9983 32.1783 37.4933 38.275H37.495ZM14.8867 43.22C13.88 44.225 12.4517 47.7233 12.0517 49.4733C11.8917 50.17 12.1 50.8883 12.605 51.3933C12.9983 51.7867 13.52 51.9983 14.0617 51.9983C14.2167 51.9983 14.3717 51.9817 14.5267 51.945C16.2767 51.545 19.7733 50.1167 20.78 49.11C21.5683 48.3233 22 47.2767 22 46.1633C22 45.05 21.5667 44.0033 20.78 43.2167C19.2083 41.6433 16.46 41.6433 14.8883 43.2167L14.8867 43.22ZM19.6 47.9333C18.9483 48.585 15.895 49.9233 14.1533 50.3217C13.9683 50.3633 13.84 50.2733 13.7833 50.215C13.725 50.1567 13.6333 50.0317 13.6767 49.845C14.075 48.1033 15.4133 45.05 16.065 44.3983C16.5367 43.9267 17.165 43.6667 17.8333 43.6667C18.5017 43.6667 19.1283 43.9267 19.6017 44.3983C20.075 44.87 20.3333 45.4983 20.3333 46.1667C20.3333 46.835 20.0733 47.4617 19.6017 47.935L19.6 47.9333Z" fill="#7F86FA"/>
</g>
<defs>
<clipPath id="clip0_51_194">
<rect width="40" height="40" fill="white" transform="translate(12 12)"/>
</clipPath>
</defs>
</svg>
