<svg width="64" height="64" viewBox="0 0 64 64" fill="none" xmlns="http://www.w3.org/2000/svg">
<rect x="0.5" y="0.5" width="63" height="63" rx="31.5" fill="#0E0F19"/>
<rect x="0.5" y="0.5" width="63" height="63" rx="31.5" stroke="#17141B"/>
<path d="M50.3333 40.3417C50.3333 36.0984 48.6566 33.9034 46.3516 32.7884C46.3 20.2717 42 14.925 32 14.925C22.135 14.925 17.7033 20.4367 17.6483 32.7884C15.3433 33.9034 13.6666 36.0984 13.6666 40.3417C13.6666 48.01 19.1383 48.9917 23.9066 48.9917C24.2666 48.9917 24.585 48.7601 24.6983 48.4201C26.4233 43.2101 26.4233 37.4734 24.6983 32.2634C24.585 31.9234 24.2666 31.6917 23.9066 31.6917C22.3833 31.6917 20.7883 31.7917 19.3233 32.18C19.5566 18.5034 25.5416 16.5917 32.0016 16.5917C38.4616 16.5917 44.4466 18.5034 44.68 32.18C43.215 31.7934 41.62 31.6917 40.0966 31.6917C39.7366 31.6917 39.4183 31.9234 39.305 32.2634C37.695 37.1234 37.59 42.4467 38.9833 47.3701C36.6666 47.4467 34.4583 47.4034 32.405 47.2384C31.9366 47.2067 31.545 47.5434 31.5066 48.0017C31.47 48.4601 31.8116 48.8634 32.27 48.8984C33.7133 49.0151 35.2266 49.0734 36.8 49.0734C37.875 49.0734 38.9766 49.0467 40.1 48.9901C44.865 48.9901 50.335 48.0051 50.335 40.34L50.3333 40.3417ZM23.2983 47.3184C17.5783 47.1901 15.3333 45.1984 15.3333 40.34C15.3333 35.4817 17.5783 33.4934 23.2983 33.3634C24.6666 37.885 24.6666 42.7967 23.2983 47.3184ZM40.7033 47.3184C39.335 42.7951 39.335 37.8867 40.7033 33.365C46.4233 33.4934 48.6683 35.4834 48.6683 40.3417C48.6683 45.2 46.4233 47.1901 40.705 47.32L40.7033 47.3184Z" fill="#E64437"/>
</svg>
