<svg width="60" height="30" viewBox="0 0 60 30" fill="none" xmlns="http://www.w3.org/2000/svg">
<g clip-path="url(#clip0_21_173)">
<mask id="mask0_21_173" style="mask-type:luminance" maskUnits="userSpaceOnUse" x="-253" y="-70" width="569" height="584">
<path d="M-252.135 513.104H315.985V-69.3384H-252.135V513.104Z" fill="white"/>
</mask>
<g mask="url(#mask0_21_173)">
<path d="M31.1338 26.0092C29.9742 25.9299 28.6371 25.7215 27.5826 25.4084C27.385 25.3497 26.5671 25.0415 26.359 24.9437C22.6875 23.2001 20.1298 19.3939 20.1298 14.9782C20.1298 8.92167 24.9361 3.98837 30.8475 3.98837C36.7064 3.98837 41.4803 8.83753 41.5623 14.8256H45.4342C45.3522 6.64973 38.8423 0.0237236 30.8475 0.0237236C22.8049 0.0237236 16.2588 6.73094 16.2588 14.9782C16.2588 20.664 19.3777 25.609 23.9445 28.1353C24.769 28.5825 25.9525 29.0433 26.3543 29.1695C27.656 29.5668 29.2537 29.831 30.6757 29.9415C31.1586 29.9787 32.845 29.9983 33.3365 30.0002H60V26.0464H33.3814C33.0273 26.0464 31.4802 26.0327 31.1338 26.0092ZM33.3814 19.801C33.0998 19.801 31.6272 19.7912 31.3552 19.7677C30.8943 19.7276 30.2262 19.6571 29.7967 19.5564C29.3119 19.4233 28.8567 19.2472 28.6515 19.1317C27.2132 18.3343 26.2331 16.7746 26.2331 14.9782C26.2331 12.3648 28.2974 10.2455 30.8475 10.2455C33.3442 10.2455 35.3741 12.2816 35.4552 14.8256H39.1754C39.0972 10.178 35.4018 6.43252 30.8475 6.43252C26.2426 6.43252 22.51 10.2582 22.51 14.9782C22.51 18.3069 24.3711 21.1815 27.0815 22.5895C27.4986 22.84 28.2831 23.1022 28.5064 23.1619C29.2718 23.3684 30.2997 23.5093 31.1338 23.5719C31.4421 23.5983 32.9519 23.61 33.2707 23.612V23.6179H59.9991V19.801H33.3814ZM13.8729 29.9856H9.97519V3.99718H4.27944V0.000242233H13.8729V29.9856ZM0 5.99418V9.8375H4.27944V29.9856H8.02443V5.99418H0Z" fill="#D91920"/>
<path d="M53.1128 0.279277C51.7089 0.279277 50.5446 1.42699 50.5446 2.86726C50.5446 4.30752 51.7089 5.50122 53.1128 5.50122C54.5597 5.50122 55.6792 4.30752 55.6792 2.86726C55.6792 1.42699 54.5597 0.279277 53.1128 0.279277ZM53.1128 5.07658C51.9533 5.07658 50.954 4.14217 50.954 2.86726C50.954 1.65692 51.9533 0.699029 53.1128 0.699029C54.2714 0.699029 55.2659 1.65692 55.2659 2.86726C55.2659 4.14217 54.2714 5.07658 53.1128 5.07658Z" fill="#D91920"/>
<path d="M54.0907 3.57651C54.0907 3.28592 54.0487 3.01587 53.7242 2.90922C54.1308 2.76441 54.1708 2.49142 54.1708 2.32607C54.1708 1.65779 53.5791 1.57267 53.3358 1.57267H52.2163V4.16064H52.683V3.09904H53.0504C53.5791 3.09904 53.623 3.34854 53.623 3.57651C53.623 4.01779 53.623 4.10096 53.7242 4.16064H54.1918C54.0907 4.05595 54.1308 3.97474 54.0907 3.57651ZM53.2336 2.72136H52.683V1.90632H53.1544C53.4808 1.90632 53.7022 2.01199 53.7022 2.32607C53.7022 2.49142 53.623 2.72136 53.2336 2.72136Z" fill="#D91920"/>
</g>
</g>
<defs>
<clipPath id="clip0_21_173">
<rect width="60" height="30" fill="white"/>
</clipPath>
</defs>
</svg>
