<svg width="36" height="30" viewBox="0 0 36 30" fill="none" xmlns="http://www.w3.org/2000/svg">
<g clip-path="url(#clip0_21_263)">
<path fill-rule="evenodd" clip-rule="evenodd" d="M30.1142 2.1262L30.873 3.14584C31.0722 3.41495 31.0224 3.80068 30.7587 4.004L29.9531 4.62894C30.0996 5.02663 30.1933 5.45123 30.2314 5.8848L31.1484 6.01337C31.4765 6.05823 31.705 6.3692 31.6611 6.70409L31.4912 7.9749C31.4472 8.30979 31.1425 8.54601 30.8144 8.49817L29.8125 8.35764C29.6337 8.75532 29.4052 9.12012 29.1357 9.44604L29.6982 10.1996C29.8974 10.4687 29.8447 10.8544 29.581 11.0577L28.582 11.8322C28.3183 12.0355 27.9404 11.9817 27.7412 11.7156L27.1289 10.8933C26.7363 11.0428 26.3232 11.1385 25.8955 11.1773L25.7695 12.1132C25.7255 12.4481 25.4209 12.6814 25.0927 12.6365L23.8476 12.4631C23.5195 12.4182 23.291 12.1073 23.3349 11.7724L23.4726 10.7497C23.0859 10.5673 22.7255 10.3341 22.4062 10.062L21.6679 10.6331C21.4042 10.8365 21.0263 10.7856 20.8271 10.5165L20.0683 9.49688C19.8691 9.22777 19.9189 8.84204 20.1826 8.63871L20.9882 8.01377C20.8417 7.61309 20.748 7.19149 20.7099 6.75792L19.7929 6.62934C19.4648 6.58449 19.2334 6.27351 19.2802 5.93862L19.4501 4.66781C19.497 4.33292 19.7988 4.09969 20.1269 4.14454L21.1289 4.28508C21.3076 3.89038 21.5361 3.52259 21.8027 3.19667L21.2431 2.44315C21.0439 2.17703 21.0937 1.79131 21.3574 1.58798L22.3564 0.813533C22.6201 0.610204 22.998 0.661036 23.1972 0.930148L23.8095 1.75243C24.1992 1.60293 24.6152 1.50724 25.04 1.46837L25.166 0.53246C25.2099 0.197565 25.5146 -0.0386552 25.8427 0.00619679L27.0878 0.179624C27.416 0.224476 27.6474 0.53545 27.6005 0.870345L27.4628 1.89297C27.8525 2.07537 28.2099 2.3086 28.5322 2.58369L29.2705 2.01258C29.5341 1.80626 29.9121 1.85709 30.1142 2.1262ZM8.69233 20.07V15.1363H11.1826C11.6455 15.1363 11.997 15.1751 12.2402 15.2589C12.4834 15.3396 12.6826 15.4891 12.8291 15.7074C12.9785 15.9287 13.0546 16.1948 13.0546 16.5087C13.0546 16.7808 12.996 17.0201 12.8818 17.2174C12.7675 17.4177 12.6093 17.5792 12.4101 17.7018C12.2841 17.7795 12.1084 17.8453 11.8857 17.8962C12.0644 17.959 12.1933 18.0158 12.2724 18.0786C12.3281 18.1204 12.4072 18.2071 12.5097 18.3387C12.6123 18.4703 12.6826 18.5749 12.7177 18.6467L13.4443 20.073H11.7568L10.9599 18.5689C10.8574 18.3746 10.7695 18.246 10.6904 18.1892C10.582 18.1144 10.4589 18.0756 10.3242 18.0756H10.1923V20.073H8.69233V20.07ZM13.9599 28.6606H11.1709L10.7695 30.0002H8.25581L11.2529 21.87H13.9482L16.9335 30.0002H14.3554L13.9599 28.6606ZM13.4384 26.8994L12.5683 23.9751L11.6953 26.8994H13.4384ZM17.5136 21.87H21.6093C22.5029 21.87 23.1709 22.0853 23.6132 22.5189C24.0556 22.9525 24.2783 23.5714 24.2783 24.3698C24.2783 25.1921 24.0351 25.835 23.5517 26.2984C23.0683 26.7619 22.3271 26.9921 21.3339 26.9921H19.9834V30.0002H17.5136V21.87ZM19.9834 25.3446H20.5898C21.0673 25.3446 21.4042 25.2609 21.5976 25.0904C21.791 24.923 21.8876 24.7047 21.8876 24.4446C21.8876 24.1904 21.8027 23.9721 21.6357 23.7957C21.4687 23.6193 21.1523 23.5296 20.6894 23.5296H19.9834V25.3446ZM25.2744 21.87H27.7441V30.0002H25.2744V21.87ZM10.1923 17.1397H10.8222C10.8896 17.1397 11.0214 17.1157 11.2177 17.0709C11.3173 17.05 11.3994 16.9991 11.4609 16.9154C11.5253 16.8317 11.5546 16.736 11.5546 16.6283C11.5546 16.4699 11.5048 16.3443 11.4052 16.2606C11.3056 16.1738 11.121 16.132 10.8486 16.132H10.1923V17.1397ZM13.7314 15.1363H17.7304V16.1888H15.2314V16.9752H17.5488V17.9799H15.2314V18.9517H17.8037V20.067H13.7314V15.1363ZM18.1582 18.4374L19.5761 18.3477C19.6054 18.5839 19.6699 18.7603 19.7636 18.8829C19.9189 19.0803 20.1386 19.1819 20.4228 19.1819C20.6337 19.1819 20.8007 19.1311 20.915 19.0294C21.0292 18.9278 21.0878 18.8082 21.0878 18.6736C21.0878 18.545 21.0322 18.4314 20.9238 18.3297C20.8154 18.2281 20.5605 18.1354 20.1591 18.0427C19.5058 17.8932 19.04 17.6928 18.7587 17.4447C18.4775 17.1965 18.3369 16.8795 18.3369 16.4938C18.3369 16.2396 18.4101 16.0004 18.5537 15.7762C18.6972 15.5519 18.914 15.3725 19.2041 15.2439C19.4941 15.1153 19.8896 15.0525 20.3935 15.0525C21.0117 15.0525 21.4804 15.1692 21.8056 15.4054C22.1279 15.6416 22.3212 16.0124 22.3828 16.5267L20.9794 16.6134C20.9414 16.3891 20.8623 16.2247 20.7451 16.126C20.625 16.0243 20.458 15.9735 20.25 15.9735C20.0771 15.9735 19.9453 16.0124 19.8574 16.0871C19.7695 16.1619 19.7255 16.2546 19.7255 16.3622C19.7255 16.44 19.7636 16.5087 19.8339 16.5745C19.9042 16.6373 20.0683 16.7001 20.332 16.7569C20.9853 16.9004 21.4541 17.047 21.7353 17.1935C22.0166 17.34 22.2246 17.5224 22.3505 17.7407C22.4794 17.956 22.5439 18.2012 22.5439 18.4703C22.5439 18.7872 22.4589 19.0773 22.2861 19.3434C22.1162 19.6095 21.8759 19.8128 21.5683 19.9504C21.2607 20.0879 20.874 20.1567 20.4052 20.1567C19.5849 20.1567 19.0136 19.9952 18.6972 19.6723C18.3808 19.3434 18.2021 18.9337 18.1582 18.4374ZM22.7607 15.1363H27.3046V16.3562H25.7812V20.07H24.2871V16.3562H22.7607V15.1363ZM17.7334 3.42691C17.1972 3.38505 16.6552 3.39103 16.1191 3.44485C14.4697 3.60632 12.8671 4.21929 11.5429 5.26883C10.0107 6.47983 8.84761 8.29185 8.39937 10.6929L8.25874 11.4435L7.52632 11.575C6.80855 11.7036 6.16694 11.88 5.60444 12.1043C5.05952 12.3196 4.57319 12.5857 4.14839 12.8996C3.80855 13.1508 3.51558 13.4319 3.26655 13.7369C2.49605 14.6788 2.13862 15.8599 2.14741 17.0559C2.1562 18.2699 2.54292 19.4959 3.25776 20.5036C3.52437 20.8773 3.83198 21.2212 4.18355 21.5202C4.54097 21.8222 4.94233 22.0734 5.39351 22.2618C5.64839 22.3694 5.92085 22.4591 6.20503 22.5309V24.7705C5.61909 24.6628 5.08003 24.5014 4.57612 24.2891C3.91108 24.008 3.32222 23.6462 2.80366 23.2036C2.31147 22.785 1.88081 22.3096 1.5146 21.7923C0.539014 20.4168 0.0116698 18.7364 -4.89245e-05 17.0619C-0.0117677 15.3695 0.503857 13.6861 1.61714 12.3226C1.97749 11.88 2.4023 11.4734 2.88862 11.1145C3.45405 10.6959 4.10151 10.3431 4.83394 10.053C5.33784 9.8527 5.8769 9.68526 6.44526 9.5507C7.0898 6.93732 8.46382 4.92496 10.2304 3.52857C11.8828 2.22189 13.872 1.4594 15.9199 1.25906C16.9951 1.15441 18.0849 1.20225 19.1513 1.40558C19.1279 1.50425 19.1074 1.60293 19.0957 1.70459L19.0927 1.72253C19.0722 1.89297 19.0634 2.06341 19.0722 2.23684C18.8466 2.32654 18.6357 2.44914 18.4453 2.59864L18.4365 2.60462C18.1523 2.8229 17.9121 3.10397 17.7334 3.42691ZM33.2343 9.16796C33.3984 9.32046 33.5566 9.47894 33.7119 9.64937C34.0253 9.99324 34.3212 10.382 34.5996 10.8155C35.5371 12.2867 36.0175 14.2512 35.997 16.1738C35.9765 18.0606 35.4785 19.9384 34.4589 21.3199C33.7939 22.2199 32.9414 22.9555 31.9189 23.5385C31.2187 23.9392 30.4306 24.2711 29.5722 24.5402V22.2229C30.0351 22.0465 30.4658 21.8491 30.8613 21.6249C31.6318 21.1853 32.2617 20.6501 32.7334 20.0072C33.4658 19.0115 33.8261 17.6031 33.8408 16.1589C33.8584 14.6429 33.4951 13.1209 32.789 12.0146C32.5869 11.6946 32.3642 11.4076 32.1298 11.1504C32.039 11.0517 31.9482 10.9591 31.8544 10.8693C31.8691 10.7198 31.875 10.5673 31.8662 10.4148C32.0918 10.3251 32.3027 10.2025 32.4931 10.053L32.5019 10.0471C32.8037 9.81084 33.0556 9.51183 33.2343 9.16796ZM25.8046 3.82759C27.1552 4.01596 28.0986 5.28677 27.914 6.66522C27.7294 8.04367 26.4843 9.00949 25.1337 8.82111C23.7832 8.63273 22.8369 7.36192 23.0244 5.98347C23.2119 4.60502 24.4541 3.63921 25.8046 3.82759Z" fill="#008FE2"/>
</g>
<defs>
<clipPath id="clip0_21_263">
<rect width="36" height="30" fill="white"/>
</clipPath>
</defs>
</svg>
