<svg width="30" height="30" viewBox="0 0 30 30" fill="none" xmlns="http://www.w3.org/2000/svg">
<g clip-path="url(#clip0_21_256)">
<path d="M17.4751 13.8499H20.1251C20.1562 13.8499 20.1871 13.8438 20.2159 13.8318C20.2448 13.8199 20.2709 13.8024 20.293 13.7803C20.315 13.7583 20.3325 13.7321 20.3445 13.7033C20.3564 13.6745 20.3626 13.6436 20.3626 13.6124V11.2624C20.3626 11.2312 20.3564 11.2003 20.3445 11.1715C20.3325 11.1427 20.315 11.1165 20.293 11.0945C20.2709 11.0724 20.2448 11.0549 20.2159 11.043C20.1871 11.0311 20.1562 11.0249 20.1251 11.0249H17.4751C17.4154 11.0249 17.3581 11.0486 17.316 11.0908C17.2738 11.133 17.2501 11.1902 17.2501 11.2499V13.6249C17.2501 13.7499 17.35 13.8499 17.4751 13.8499ZM13.7876 7.06241H16.4376C16.4983 7.0592 16.5556 7.03277 16.5975 6.98858C16.6393 6.94438 16.6626 6.88579 16.6626 6.82491V4.46241C16.6595 4.40371 16.6349 4.34822 16.5933 4.30666C16.5517 4.2651 16.4962 4.24042 16.4376 4.23741H13.7876C13.757 4.23571 13.7264 4.24027 13.6976 4.25081C13.6688 4.26135 13.6425 4.27766 13.6203 4.29872C13.5981 4.31979 13.5804 4.34517 13.5683 4.37332C13.5562 4.40146 13.55 4.43178 13.5501 4.46241V6.83741C13.5501 6.96241 13.6626 7.06241 13.7876 7.06241ZM13.7876 10.4499H16.4376C16.4962 10.4469 16.5517 10.4222 16.5933 10.3807C16.6349 10.3391 16.6595 10.2836 16.6626 10.2249V7.86241C16.6595 7.80371 16.6349 7.74822 16.5933 7.70666C16.5517 7.6651 16.4962 7.64042 16.4376 7.63741H13.7876C13.757 7.63571 13.7264 7.64027 13.6976 7.65081C13.6688 7.66135 13.6425 7.67766 13.6203 7.69872C13.5981 7.71979 13.5804 7.74517 13.5683 7.77332C13.5562 7.80146 13.55 7.83178 13.5501 7.86241V10.2249C13.5501 10.3499 13.6626 10.4499 13.7876 10.4499ZM10.1251 10.4499H12.7751C12.8337 10.4469 12.8892 10.4222 12.9308 10.3807C12.9724 10.3391 12.997 10.2836 13.0001 10.2249V7.86241C13.0001 7.80273 12.9763 7.7455 12.9342 7.70331C12.892 7.66111 12.8347 7.63741 12.7751 7.63741H10.1251C10.0654 7.63741 10.0081 7.66111 9.96595 7.70331C9.92376 7.7455 9.90005 7.80273 9.90005 7.86241V10.2249C9.90005 10.3499 10.0001 10.4499 10.1251 10.4499ZM6.42505 10.4499H9.06255C9.12343 10.45 9.18202 10.4267 9.22622 10.3848C9.27042 10.343 9.29685 10.2857 9.30005 10.2249V7.86241C9.3001 7.83178 9.29389 7.80146 9.28181 7.77332C9.26973 7.74517 9.25203 7.71979 9.22979 7.69872C9.20756 7.67766 9.18126 7.66135 9.1525 7.65081C9.12374 7.64027 9.09313 7.63571 9.06255 7.63741H6.42505C6.36417 7.63732 6.30558 7.66062 6.26138 7.70249C6.21719 7.74437 6.19075 7.80161 6.18755 7.86241V10.2249C6.18755 10.3499 6.28755 10.4499 6.42505 10.4499ZM13.7876 13.8499H16.4376C16.4983 13.8467 16.5556 13.8203 16.5975 13.7761C16.6393 13.7319 16.6626 13.6733 16.6626 13.6124V11.2624C16.6626 11.2015 16.6393 11.1429 16.5975 11.0987C16.5556 11.0545 16.4983 11.0281 16.4376 11.0249H13.7876C13.757 11.0232 13.7264 11.0278 13.6976 11.0383C13.6688 11.0489 13.6425 11.0652 13.6203 11.0862C13.5981 11.1073 13.5804 11.1327 13.5683 11.1608C13.5562 11.189 13.55 11.2193 13.5501 11.2499V13.6249C13.5501 13.7499 13.6626 13.8499 13.7876 13.8499ZM10.1251 13.8499H12.7751C12.8057 13.85 12.836 13.8437 12.8641 13.8317C12.8923 13.8196 12.9177 13.8019 12.9387 13.7797C12.9598 13.7574 12.9761 13.7311 12.9866 13.7024C12.9972 13.6736 13.0018 13.643 13.0001 13.6124V11.2624C13.0018 11.2318 12.9972 11.2012 12.9866 11.1725C12.9761 11.1437 12.9598 11.1174 12.9387 11.0952C12.9177 11.0729 12.8923 11.0552 12.8641 11.0431C12.836 11.0311 12.8057 11.0249 12.7751 11.0249H10.1251C10.0654 11.0249 10.0081 11.0486 9.96595 11.0908C9.92376 11.133 9.90005 11.1902 9.90005 11.2499V13.6249C9.90005 13.7499 10.0001 13.8499 10.1251 13.8499ZM6.42505 13.8499H9.06255C9.09421 13.8517 9.1259 13.8468 9.15554 13.8355C9.18518 13.8242 9.21209 13.8068 9.23452 13.7844C9.25694 13.7619 9.27438 13.735 9.28567 13.7054C9.29696 13.6758 9.30186 13.6441 9.30005 13.6124V11.2624C9.30175 11.2318 9.29719 11.2012 9.28665 11.1725C9.27611 11.1437 9.2598 11.1174 9.23874 11.0952C9.21767 11.0729 9.19229 11.0552 9.16414 11.0431C9.136 11.0311 9.10568 11.0249 9.07505 11.0249H6.42505C6.36206 11.0249 6.30165 11.0499 6.25711 11.0945C6.21257 11.139 6.18755 11.1994 6.18755 11.2624V13.6124C6.18755 13.7374 6.28755 13.8499 6.42505 13.8499ZM2.77505 13.8499H5.42505C5.45568 13.85 5.486 13.8437 5.51414 13.8317C5.54229 13.8196 5.56767 13.8019 5.58874 13.7797C5.6098 13.7574 5.62611 13.7311 5.63665 13.7024C5.64719 13.6736 5.65175 13.643 5.65005 13.6124V11.2624C5.65175 11.2318 5.64719 11.2012 5.63665 11.1725C5.62611 11.1437 5.6098 11.1174 5.58874 11.0952C5.56767 11.0729 5.54229 11.0552 5.51414 11.0431C5.486 11.0311 5.45568 11.0249 5.42505 11.0249H2.77505C2.74447 11.0232 2.71386 11.0278 2.6851 11.0383C2.65635 11.0489 2.63004 11.0652 2.60781 11.0862C2.58557 11.1073 2.56787 11.1327 2.55579 11.1608C2.54371 11.189 2.5375 11.2193 2.53755 11.2499V13.6249C2.53755 13.7499 2.63755 13.8499 2.77505 13.8499ZM29.7001 12.3624C29.6251 12.2999 28.8626 11.7249 27.2626 11.7249C26.8376 11.7249 26.4125 11.7624 26 11.8374C25.8892 11.1804 25.6402 10.5543 25.2696 10.0006C24.899 9.44681 24.4152 8.97794 23.8501 8.62491L23.4251 8.37491L23.1376 8.78741C22.7882 9.3365 22.5346 9.94092 22.3876 10.5749C22.0876 11.7874 22.2626 12.9249 22.8876 13.8999C22.199 14.2142 21.4562 14.3924 20.7001 14.4249H0.950051C0.825889 14.4233 0.702635 14.4463 0.587445 14.4927C0.472256 14.539 0.367426 14.6078 0.279043 14.695C0.19066 14.7823 0.120484 14.8862 0.0725906 15.0007C0.0246971 15.1153 4.00174e-05 15.2382 5.10555e-05 15.3624C-0.019479 17.0932 0.277046 18.8131 0.875051 20.4374C1.41064 22.0364 2.46695 23.4096 3.87505 24.3374C5.35005 25.2499 7.75005 25.7624 10.4751 25.7624C11.7001 25.7624 12.9251 25.6624 14.1376 25.4374C15.8156 25.1243 17.4296 24.5328 18.9126 23.6874C20.1363 22.9813 21.2379 22.0822 22.1751 21.0249C23.7376 19.2499 24.6751 17.2749 25.3626 15.5249H25.6501C27.3626 15.5249 28.4126 14.8374 29.0001 14.2749C29.3751 13.8999 29.6876 13.4499 29.8751 12.9499L30.0001 12.5999L29.7001 12.3624Z" fill="#008FE2"/>
</g>
<defs>
<clipPath id="clip0_21_256">
<rect width="30" height="30" fill="white"/>
</clipPath>
</defs>
</svg>
