<svg width="30" height="30" viewBox="0 0 30 30" fill="none" xmlns="http://www.w3.org/2000/svg">
<g clip-path="url(#clip0_21_234)">
<path d="M21.6 10.8333H14.6333C14.6666 10.9999 14.7333 11.1666 14.7666 11.2999C15 12.0999 15.1333 12.9333 15.2 13.7999C15.2333 14.1333 15.2333 14.4999 15.2333 14.8333C15.2333 15.1666 15.2333 15.5333 15.2 15.8666C15.1333 16.7333 15 17.5666 14.7666 18.3666C14.7333 18.5333 14.6666 18.6999 14.6333 18.8333H21.6C23.8 18.8333 25.5666 17.0333 25.5666 14.8333C25.5666 12.6333 23.8 10.8333 21.6 10.8333Z" fill="#00A9E5"/>
<path d="M15.2001 15.8666C15.2334 15.5333 15.2334 15.1666 15.2334 14.8333C15.2334 14.4999 15.2334 14.1333 15.2001 13.7999C15.1334 12.9333 15.0001 12.0999 14.7667 11.2999C14.7334 11.1333 14.6667 10.9666 14.6334 10.8333H3.86672C3.46672 12.0999 3.26672 13.4333 3.26672 14.8333C3.26672 16.2333 3.46672 17.5666 3.86672 18.8333H14.6334C14.6667 18.6666 14.7334 18.4999 14.7667 18.3666C15.0001 17.5666 15.1334 16.7333 15.2001 15.8666Z" fill="#353535"/>
<path d="M22.7999 20.1667H14.1333C13.8666 20.7667 13.5666 21.3334 13.2333 21.8668C12.7333 22.7001 12.1333 23.4334 11.4666 24.1334C11.2333 24.3667 10.9999 24.5667 10.7666 24.8001C10.2999 25.2334 9.76661 25.6001 9.23328 25.9667C11.3333 27.3667 13.8666 28.1667 16.5666 28.1667C21.1999 28.1667 25.2666 25.8001 27.6666 22.2334C26.4333 20.9667 24.6999 20.1667 22.7999 20.1667Z" fill="#00BFB3"/>
<path d="M13.2334 21.8668C13.5667 21.3334 13.8667 20.7667 14.1334 20.1667H4.3667C5.40003 22.5334 7.10003 24.5667 9.2667 25.9667C9.80003 25.6001 10.3 25.2334 10.8 24.8001C11.0334 24.6001 11.2667 24.3667 11.5 24.1334C12.1334 23.4667 12.7334 22.7001 13.2334 21.8668Z" fill="#019B8F"/>
<path d="M11.4667 5.53328C11.2334 5.29995 11 5.09995 10.7667 4.86662C10.3 4.43328 9.76671 4.06662 9.23337 3.69995C7.10004 5.09995 5.40004 7.13329 4.33337 9.49995H14.1C13.8334 8.89995 13.5334 8.33329 13.2 7.79995C12.7334 6.96662 12.1334 6.19995 11.4667 5.53328Z" fill="#F9B110"/>
<path d="M16.5666 1.5C13.8666 1.5 11.3333 2.3 9.23328 3.7C9.76661 4.06667 10.2666 4.43333 10.7666 4.86667C10.9999 5.06667 11.2333 5.3 11.4666 5.53333C12.1333 6.23333 12.7333 6.96667 13.2333 7.8C13.5666 8.33333 13.8666 8.9 14.1333 9.5H22.7999C24.6999 9.5 26.4333 8.7 27.6666 7.43333C25.2666 3.86667 21.1999 1.5 16.5666 1.5Z" fill="#FED10A"/>
</g>
<defs>
<clipPath id="clip0_21_234">
<rect width="30" height="30" fill="white"/>
</clipPath>
</defs>
</svg>
