<svg width="30" height="30" viewBox="0 0 30 30" fill="none" xmlns="http://www.w3.org/2000/svg">
<g clip-path="url(#clip0_21_258)">
<path d="M29.4158 13.678L16.325 0.588859C15.5718 -0.165036 14.3491 -0.165036 13.595 0.588859L10.8768 3.30728L14.3247 6.75517C15.1263 6.48454 16.045 6.666 16.6836 7.30475C17.3256 7.94749 17.5057 8.87407 17.2283 9.67831L20.5515 13.0015C21.3554 12.7244 22.283 12.9034 22.925 13.5465C23.8225 14.4438 23.8225 15.8977 22.925 16.7952C22.0274 17.693 20.5734 17.693 19.6753 16.7952C19.0004 16.1198 18.8335 15.1282 19.1753 14.2967L16.0761 11.1975L16.0758 19.353C16.2946 19.4614 16.5012 19.6059 16.6835 19.7875C17.5808 20.6846 17.5808 22.1383 16.6835 23.037C15.786 23.9341 14.3314 23.9341 13.4348 23.037C12.5374 22.1384 12.5374 20.6847 13.4348 19.7875C13.6566 19.5661 13.9132 19.3985 14.187 19.2862V11.0549C13.9131 10.9431 13.6568 10.7768 13.4347 10.5536C12.7549 9.87438 12.5912 8.87675 12.9398 8.04204L9.54086 4.64257L0.565599 13.6176C-0.188533 14.372 -0.188533 15.5947 0.565599 16.3486L13.6556 29.4378C14.4092 30.1917 15.6314 30.1917 16.3861 29.4378L29.4156 16.4105C30.1695 15.6562 30.1695 14.4332 29.4156 13.6791" fill="#F05133"/>
</g>
<defs>
<clipPath id="clip0_21_258">
<rect width="30" height="30" fill="white"/>
</clipPath>
</defs>
</svg>
