<svg width="103" height="30" viewBox="0 0 103 30" fill="none" xmlns="http://www.w3.org/2000/svg">
<g clip-path="url(#clip0_21_220)">
<path d="M41.9789 6.4775C40.3687 15.1384 38.257 21.4253 35.6174 25.3384C33.5638 28.3645 31.3148 29.8775 28.8599 29.8775C28.208 29.8775 27.4029 29.6826 26.4473 29.2958V27.2088C26.9145 27.2766 27.4609 27.3126 28.0918 27.3126C29.2348 27.3126 30.156 26.9996 30.8634 26.3761C31.7028 25.6144 32.1225 24.7587 32.1225 23.8118C32.1225 23.1648 31.7952 21.8344 31.1432 19.8205L26.8142 6.46393H30.6945L33.8092 16.4552C34.5087 18.7222 34.8017 20.3161 34.683 21.2031C36.3855 16.69 37.5865 11.7857 38.2465 6.46393H41.9947M24.8372 23.7335H20.8777C20.7386 17.1335 20.3524 10.8987 19.7242 5.08132H19.6894L13.671 23.7335H10.6618L4.66989 5.08132H4.63452C4.19106 10.6639 3.91126 16.8987 3.79512 23.7335H0.178833C0.411648 15.4118 0.994477 7.61176 1.92627 0.333496H6.83597L12.5376 17.5248H12.5727L18.3007 0.333496H22.9992C24.026 8.86393 24.6331 16.6639 24.8179 23.7335" fill="#00758F"/>
<path d="M94.7714 23.7468H83.5529V0.346839H87.3276V20.8773H94.7714V23.7468ZM66.5274 19.0773C65.5718 17.5512 65.0914 15.1121 65.0914 11.7208C65.0914 5.8251 66.8995 2.87727 70.5026 2.87727C72.3926 2.87727 73.7758 3.58162 74.6732 4.99032C75.6288 6.5164 76.1092 8.95553 76.1092 12.2686C76.1092 18.2164 74.3011 21.1903 70.698 21.1903C68.808 21.1903 67.4248 20.486 66.5274 19.0747M80.5966 24.3181L76.2676 22.1973C76.653 21.8842 77.0225 21.5451 77.3525 21.1512C79.1949 19.0042 80.1241 15.8294 80.1241 11.6294C80.1241 3.88162 77.0621 0.020752 70.9118 0.020752C67.9026 0.020752 65.5533 1.00162 63.8904 2.96858C62.0453 5.11814 61.1188 8.29032 61.1188 12.4642C61.1188 16.586 61.9344 19.586 63.5683 21.5164C65.0571 23.2486 67.3166 24.1173 70.3258 24.1173C71.4503 24.1173 72.4797 23.9801 73.4141 23.7051L79.0629 26.966L80.6045 24.3312M59.4875 17.2877C59.4875 19.2729 58.751 20.9138 57.2834 22.166C55.8158 23.4364 53.8519 24.0703 51.3706 24.0703C49.061 24.0703 46.8305 23.3373 44.6396 21.8842L45.6532 19.8729C47.5194 20.7964 49.2167 21.2581 50.7213 21.2581C52.144 21.2581 53.258 20.9451 54.0736 20.3242C54.8761 19.7008 55.3591 18.8295 55.3591 17.726C55.3591 16.3355 54.3798 15.1486 52.5875 14.1521C50.9298 13.2521 47.625 11.3608 47.625 11.3608C45.8301 10.0642 44.9326 8.6738 44.9326 6.37814C44.9326 4.48162 45.603 2.96075 46.944 1.78684C48.2875 0.618143 50.0059 0.0337954 52.144 0.0337954C54.3376 0.0337954 56.341 0.612926 58.136 1.76858L57.2227 3.77727C55.6864 3.13293 54.1607 2.80684 52.6825 2.80684C51.4709 2.80684 50.5365 3.0964 49.8845 3.67553C49.2299 4.24945 48.826 4.99032 48.826 5.89293C48.826 7.27814 49.8265 8.48075 51.6768 9.49293C53.353 10.3955 56.7449 12.3103 56.7449 12.3103C58.59 13.6042 59.5165 14.9973 59.5165 17.2668" fill="#F29111"/>
<path d="M96.8831 23.747H97.5086V21.3653H98.3269V20.8801H96.0305V21.3653H96.8804L96.8831 23.747ZM101.661 23.747H102.252V20.8774H101.365L100.642 22.8314L99.8553 20.8774H99V23.747H99.5596V21.5635H99.5913L100.415 23.747H100.84L101.663 21.5635V23.747" fill="#F29111"/>
</g>
<defs>
<clipPath id="clip0_21_220">
<rect width="103" height="30" fill="white"/>
</clipPath>
</defs>
</svg>
