<svg width="54" height="30" viewBox="0 0 54 30" fill="none" xmlns="http://www.w3.org/2000/svg">
<g clip-path="url(#clip0_21_186)">
<mask id="mask0_21_186" style="mask-type:luminance" maskUnits="userSpaceOnUse" x="0" y="0" width="54" height="30">
<path d="M0.759277 15.0001C0.759277 22.8524 12.5079 29.218 27 29.218C41.492 29.218 53.2407 22.8524 53.2407 15.0001C53.2407 7.14791 41.492 0.782158 27 0.782158C12.5079 0.782158 0.759277 7.14791 0.759277 15.0001Z" fill="white"/>
</mask>
<g mask="url(#mask0_21_186)">
<path d="M0.759277 15.0001C0.759277 22.8524 12.5079 29.218 27 29.218C41.492 29.218 53.2407 22.8524 53.2407 15.0001C53.2407 7.14791 41.492 0.782158 27 0.782158C12.5079 0.782158 0.759277 7.14791 0.759277 15.0001Z" fill="url(#paint0_radial_21_186)"/>
</g>
<mask id="mask1_21_186" style="mask-type:luminance" maskUnits="userSpaceOnUse" x="-1" y="-1" width="56" height="32">
<path d="M-0.334106 -0.83691H54.334V30.8369H-0.334106V-0.83691Z" fill="white"/>
</mask>
<g mask="url(#mask1_21_186)">
<path d="M26.9999 28.1624C40.926 28.1624 52.2156 22.2694 52.2156 15C52.2156 7.73078 40.926 1.83769 26.9999 1.83769C13.0739 1.83769 1.7843 7.73078 1.7843 15C1.7843 22.2694 13.0739 28.1624 26.9999 28.1624Z" fill="#777BB3"/>
</g>
<mask id="mask2_21_186" style="mask-type:luminance" maskUnits="userSpaceOnUse" x="-1" y="-1" width="56" height="32">
<path d="M-0.334106 -0.83691H54.334V30.8369H-0.334106V-0.83691Z" fill="white"/>
</mask>
<g mask="url(#mask2_21_186)">
<path d="M15.0161 16.632C16.1612 16.632 17.016 16.4145 17.5569 15.9857C18.092 15.5613 18.4616 14.8261 18.6553 13.8005C18.8359 12.8419 18.7671 12.1725 18.4509 11.8113C18.1275 11.4424 17.4284 11.2552 16.373 11.2552H14.5431L13.5286 16.632H15.0161ZM9.03081 23.2551C8.94586 23.2551 8.86519 23.216 8.81119 23.1484C8.75709 23.0808 8.73516 22.9919 8.75139 22.9059L11.44 8.6575C11.466 8.51976 11.5832 8.42024 11.7195 8.42024H17.5141C19.3353 8.42024 20.6908 8.92956 21.5428 9.93423C22.3993 10.9442 22.6638 12.3559 22.3289 14.1301C22.1926 14.853 21.9582 15.5243 21.6322 16.1253C21.3058 16.727 20.8744 17.2837 20.3499 17.7803C19.7219 18.3857 19.0112 18.8246 18.2394 19.0829C17.4799 19.3377 16.5044 19.467 15.3401 19.467H12.9938L12.3237 23.0178C12.2977 23.1556 12.1806 23.2551 12.0443 23.2551H9.03081Z" fill="black"/>
<path d="M14.7778 11.5485H16.3731C17.6468 11.5485 18.0893 11.8364 18.2396 12.0079C18.4891 12.2928 18.5361 12.8934 18.3758 13.7448C18.1957 14.6979 17.8618 15.3738 17.3833 15.7533C16.8933 16.1417 16.0969 16.3386 15.0161 16.3386H13.874L14.7778 11.5485ZM17.5142 8.1269H11.7194C11.4468 8.1269 11.2125 8.32594 11.1605 8.60152L8.4719 22.85C8.43944 23.0219 8.48329 23.1997 8.59139 23.3349C8.69959 23.4701 8.86075 23.5483 9.03082 23.5483H12.0442C12.3169 23.5483 12.5512 23.3493 12.6032 23.0737L13.2285 19.7602H15.3401C16.5343 19.7602 17.5396 19.6261 18.3278 19.3616C19.1384 19.0903 19.8842 18.6304 20.5443 17.9946C21.0903 17.4772 21.5399 16.8965 21.8807 16.2684C22.2215 15.6401 22.4664 14.9395 22.6084 14.186C22.961 12.3184 22.6746 10.8229 21.7572 9.74129C20.8487 8.67005 19.4211 8.1269 17.5142 8.1269ZM13.1831 16.9252H15.0161C16.2311 16.9252 17.136 16.6895 17.7306 16.218C18.3253 15.7464 18.7264 14.9594 18.9349 13.8564C19.1343 12.7975 19.0434 12.0503 18.6624 11.6149C18.2808 11.1796 17.5179 10.9619 16.3731 10.9619H14.3084L13.1831 16.9252ZM17.5142 8.71345C19.2574 8.71345 20.5291 9.18465 21.3284 10.1271C22.1276 11.0696 22.3683 12.3852 22.0494 14.0742C21.9182 14.7699 21.6962 15.406 21.3836 15.9823C21.0707 16.559 20.6621 17.0863 20.1572 17.5644C19.5555 18.1444 18.887 18.5578 18.1515 18.8039C17.4159 19.0508 16.4791 19.1736 15.3401 19.1736H12.759L12.0442 22.9618H9.03082L11.7194 8.71345H17.5142Z" fill="white"/>
<path d="M29.2382 19.467C29.1532 19.467 29.0726 19.4279 29.0186 19.3603C28.9644 19.2927 28.9425 19.2039 28.9587 19.1178L30.148 12.8135C30.2611 12.2139 30.2332 11.7836 30.0695 11.6018C29.9693 11.4906 29.6682 11.3042 28.7781 11.3042H26.6234L25.1281 19.2297C25.1021 19.3675 24.9849 19.467 24.8486 19.467H21.859C21.7739 19.467 21.6933 19.4279 21.6392 19.3603C21.5851 19.2927 21.5632 19.2038 21.5795 19.1178L24.2681 4.86942C24.2941 4.73167 24.4113 4.63216 24.5476 4.63216H27.5372C27.6223 4.63216 27.7028 4.67126 27.7569 4.73881C27.811 4.80646 27.833 4.89532 27.8167 4.98135L27.1679 8.42031H29.4858C31.2516 8.42031 32.449 8.74095 33.1464 9.40063C33.8573 10.0736 34.0791 11.1496 33.8057 12.5992L32.5548 19.2297C32.5288 19.3675 32.4117 19.467 32.2753 19.467H29.2382Z" fill="black"/>
<path d="M27.5372 4.33882H24.5476C24.2749 4.33882 24.0406 4.53785 23.9886 4.81343L21.3 19.0619C21.2675 19.2338 21.3114 19.4116 21.4195 19.5468C21.5277 19.682 21.6889 19.7603 21.859 19.7603H24.8486C25.1212 19.7603 25.3557 19.5612 25.4077 19.2856L26.8582 11.5974H28.7781C29.6667 11.5974 29.8532 11.7929 29.8607 11.8013C29.9146 11.8611 29.9855 12.1377 29.8685 12.7575L28.6792 19.0619C28.6467 19.2338 28.6906 19.4116 28.7988 19.5468C28.907 19.682 29.0681 19.7603 29.2382 19.7603H32.2753C32.5479 19.7603 32.7823 19.5612 32.8344 19.2856L34.0852 12.6552C34.3787 11.0987 34.1276 9.9312 33.3391 9.18472C32.5866 8.47293 31.3262 8.12697 29.4858 8.12697H27.5132L28.0963 5.0373C28.1286 4.86535 28.0849 4.68742 27.9767 4.55232C27.8685 4.41712 27.7073 4.33882 27.5372 4.33882ZM27.5372 4.92537L26.8225 8.71352H29.4858C31.1617 8.71352 32.3176 9.01481 32.9538 9.61661C33.5899 10.2188 33.7805 11.1945 33.5262 12.5433L32.2753 19.1737H29.2382L30.4275 12.8694C30.5629 12.1523 30.5131 11.6631 30.2781 11.4023C30.0431 11.1415 29.543 11.0108 28.7781 11.0108H26.3886L24.8486 19.1737H21.859L24.5476 4.92537H27.5372Z" fill="white"/>
<path d="M38.5362 16.632C39.6813 16.632 40.5362 16.4145 41.0771 15.9857C41.6122 15.5614 41.9817 14.8262 42.1756 13.8005C42.3562 12.8419 42.2874 12.1725 41.971 11.8113C41.6477 11.4424 40.9486 11.2552 39.8932 11.2552H38.0632L37.0487 16.632H38.5362ZM32.551 23.2551C32.4661 23.2551 32.3854 23.216 32.3314 23.1484C32.2773 23.0808 32.2553 22.9919 32.2715 22.9059L34.9601 8.6575C34.9862 8.51976 35.1033 8.42024 35.2397 8.42024H41.0343C42.8555 8.42024 44.2109 8.92956 45.063 9.93423C45.9196 10.9441 46.184 12.3558 45.8491 14.1301C45.7127 14.853 45.4783 15.5243 45.1523 16.1253C44.8259 16.727 44.3945 17.2837 43.87 17.7803C43.2421 18.3857 42.5314 18.8246 41.7596 19.0829C41 19.3377 40.0245 19.467 38.8603 19.467H36.5138L35.844 23.0178C35.8179 23.1556 35.7008 23.2551 35.5644 23.2551H32.551Z" fill="black"/>
<path d="M38.2979 11.5485H39.8932C41.1669 11.5485 41.6094 11.8364 41.7597 12.0079C42.0093 12.2928 42.0563 12.8934 41.8959 13.7447C41.7158 14.698 41.3818 15.3738 40.9034 15.7533C40.4135 16.1417 39.617 16.3386 38.5362 16.3386H37.3942L38.2979 11.5485ZM41.0343 8.1269H35.2396C34.9671 8.1269 34.7327 8.32594 34.6807 8.60152L31.9921 22.85C31.9596 23.0219 32.0035 23.1997 32.1116 23.3349C32.2198 23.4701 32.3809 23.5483 32.551 23.5483H35.5644C35.837 23.5483 36.0714 23.3493 36.1234 23.0737L36.7486 19.7602H38.8603C40.0544 19.7602 41.0597 19.6261 41.8479 19.3616C42.6585 19.0903 43.4045 18.6303 44.0646 17.9944C44.6106 17.4771 45.0601 16.8965 45.4008 16.2684C45.7416 15.6401 45.9865 14.9395 46.1285 14.186C46.4811 12.3183 46.1947 10.8228 45.2773 9.74119C44.3688 8.67005 42.9413 8.1269 41.0343 8.1269ZM36.7033 16.9252H38.5362C39.7512 16.9252 40.6561 16.6895 41.2507 16.218C41.8455 15.7464 42.2465 14.9594 42.455 13.8564C42.6545 12.7975 42.5636 12.0503 42.1825 11.6149C41.8009 11.1796 41.038 10.9619 39.8932 10.9619H37.8285L36.7033 16.9252ZM41.0343 8.71345C42.7775 8.71345 44.0492 9.18465 44.8485 10.1271C45.6478 11.0696 45.8884 12.3852 45.5695 14.0742C45.4383 14.7699 45.2163 15.406 44.9037 15.9823C44.5908 16.559 44.1822 17.0863 43.6773 17.5644C43.0756 18.1444 42.4071 18.5578 41.6716 18.8039C40.936 19.0508 39.9992 19.1736 38.8603 19.1736H36.2791L35.5644 22.9618H32.551L35.2396 8.71345H41.0343Z" fill="white"/>
</g>
</g>
<defs>
<radialGradient id="paint0_radial_21_186" cx="0" cy="0" r="1" gradientUnits="userSpaceOnUse" gradientTransform="translate(16.5143 5.78074) scale(34.4578 35.4921)">
<stop stop-color="#AEB2D5"/>
<stop offset="0.3" stop-color="#AEB2D5"/>
<stop offset="0.75" stop-color="#484C89"/>
<stop offset="1" stop-color="#484C89"/>
</radialGradient>
<clipPath id="clip0_21_186">
<rect width="54" height="30" fill="white"/>
</clipPath>
</defs>
</svg>
