<svg width="30" height="30" viewBox="0 0 30 30" fill="none" xmlns="http://www.w3.org/2000/svg">
<g clip-path="url(#clip0_21_224)">
<path d="M28.8246 21.9073C27.2236 22.7418 18.93 26.1518 17.1643 27.0723C15.3987 27.9929 14.4178 27.984 13.0229 27.3172C11.6282 26.6504 2.8023 23.0854 1.21242 22.3254C0.417891 21.9457 0 21.6251 0 21.3223V18.2899C0 18.2899 11.4902 15.7886 13.3452 15.123C15.2 14.4575 15.8436 14.4335 17.4221 15.0117C19.0009 15.5902 28.4399 17.2931 30 17.8645L29.9993 20.854C29.9995 21.1537 29.6395 21.4826 28.8246 21.9073Z" fill="#912626"/>
<path d="M28.824 18.893C27.2231 19.7272 18.9297 23.1373 17.1641 24.0577C15.3985 24.9785 14.4177 24.9694 13.0229 24.3026C11.628 23.6363 2.80251 20.0707 1.21275 19.3112C-0.377018 18.5512 -0.4103 18.0282 1.15134 17.4167C2.71298 16.805 11.4901 13.3614 13.3453 12.6959C15.2001 12.0307 15.8436 12.0064 17.4221 12.5848C19.0008 13.163 27.2447 16.4444 28.8045 17.0157C30.365 17.5877 30.4249 18.0587 28.824 18.893Z" fill="#C6302B"/>
<path d="M28.8246 17.0009C27.2236 17.8356 18.93 21.2455 17.1643 22.1663C15.3987 23.0866 14.4178 23.0777 13.0229 22.4109C11.628 21.7445 2.8023 18.179 1.21242 17.4191C0.417891 17.0394 0 16.7192 0 16.4163V13.3836C0 13.3836 11.4902 10.8824 13.3452 10.2168C15.2 9.55134 15.8436 9.52719 17.4221 10.1055C19.001 10.6838 28.44 12.3865 30 12.958L29.9993 15.9478C29.9995 16.2474 29.6395 16.5763 28.8246 17.0009Z" fill="#912626"/>
<path d="M28.824 13.9865C27.2231 14.8209 18.9297 18.2308 17.1641 19.1515C15.3985 20.0719 14.4177 20.0629 13.0229 19.3961C11.628 18.7298 2.80251 15.1642 1.21275 14.4046C-0.377018 13.6449 -0.4103 13.1218 1.15134 12.51C2.71298 11.8987 11.4902 8.45488 13.3453 7.78949C15.2001 7.1241 15.8436 7.09996 17.4221 7.67828C19.0008 8.25648 27.2447 11.5376 28.8045 12.1091C30.365 12.681 30.4249 13.1521 28.824 13.9865Z" fill="#C6302B"/>
<path d="M28.8246 11.9126C27.2236 12.7469 18.93 16.1571 17.1643 17.078C15.3987 17.9984 14.4178 17.9893 13.0229 17.3225C11.628 16.6561 2.8023 13.0905 1.21242 12.3309C0.417891 11.9509 0 11.6306 0 11.328V8.29523C0 8.29523 11.4902 5.79409 13.3452 5.1287C15.2 4.46308 15.8436 4.43917 17.4221 5.01738C19.001 5.5957 28.44 7.29831 30 7.86984L29.9993 10.8595C29.9995 11.1589 29.6395 11.4878 28.8246 11.9126Z" fill="#912626"/>
<path d="M28.824 8.89797C27.2231 9.73234 18.9297 13.1425 17.1641 14.0629C15.3985 14.9833 14.4177 14.9743 13.0229 14.3078C11.6281 13.641 2.80252 10.0757 1.21287 9.31597C-0.377016 8.55636 -0.41018 8.03312 1.15134 7.42152C2.71298 6.81004 11.4902 3.36672 13.3453 2.70109C15.2001 2.03558 15.8436 2.01168 17.4221 2.59C19.0008 3.16832 27.2447 6.44945 28.8045 7.02097C30.365 7.59238 30.4249 8.06359 28.824 8.89797Z" fill="#C6302B"/>
<path d="M18.666 5.94819L16.0867 6.21597L15.5093 7.60534L14.5767 6.05495L11.5984 5.7873L13.8207 4.98585L13.1539 3.75562L15.2346 4.56937L17.1961 3.92718L16.6659 5.19925L18.666 5.94819ZM15.3553 12.6886L10.5416 10.6921L17.4392 9.63327L15.3553 12.6886ZM8.68147 6.72046C10.7176 6.72046 12.3682 7.3603 12.3682 8.14944C12.3682 8.93882 10.7176 9.57854 8.68147 9.57854C6.64534 9.57854 4.99475 8.9387 4.99475 8.14944C4.99475 7.3603 6.64534 6.72046 8.68147 6.72046Z" fill="white"/>
<path d="M21.7142 6.328L25.7966 7.9412L21.7177 9.55288L21.7142 6.328Z" fill="#621B1C"/>
<path d="M17.1979 8.1144L21.7143 6.32788L21.7178 9.55276L21.2749 9.72597L17.1979 8.1144Z" fill="#9A2928"/>
</g>
<defs>
<clipPath id="clip0_21_224">
<rect width="30" height="30" fill="white"/>
</clipPath>
</defs>
</svg>
