<svg width="50" height="50" viewBox="0 0 50 50" fill="none" xmlns="http://www.w3.org/2000/svg">
<rect x="0.5" y="0.5" width="49" height="49" rx="7.5" fill="#F5731E" fill-opacity="0.1"/>
<rect x="0.5" y="0.5" width="49" height="49" rx="7.5" stroke="#F5731E"/>
<path d="M19.5622 28.1488C19.3113 28.4008 19.1655 28.7555 19.1667 29.1311C19.1667 29.5056 19.316 29.8591 19.5832 30.124L22.4742 32.7338C22.7133 32.9508 22.732 33.3183 22.5162 33.5575C22.3003 33.7978 21.9305 33.8141 21.6925 33.5995L18.7828 30.971C18.273 30.4681 18.0023 29.823 18 29.1346C17.9977 28.4463 18.2648 27.7976 18.7525 27.3111L21.6867 24.5741C21.9212 24.3548 22.2922 24.3676 22.5103 24.6021C22.7297 24.8378 22.718 25.2076 22.4823 25.4258L19.5622 28.1488ZM39 17.4166V32.5833C39 35.4778 36.6445 37.8333 33.75 37.8333H16.25C13.3555 37.8333 11 35.4778 11 32.5833V17.4166C11 14.5221 13.3555 12.1666 16.25 12.1666H33.75C36.6445 12.1666 39 14.5221 39 17.4166ZM12.1667 17.4166V20.3333H37.8333V17.4166C37.8333 15.165 36.0017 13.3333 33.75 13.3333H16.25C13.9983 13.3333 12.1667 15.165 12.1667 17.4166ZM37.8333 32.5833V21.5H12.1667V32.5833C12.1667 34.835 13.9983 36.6666 16.25 36.6666H33.75C36.0017 36.6666 37.8333 34.835 37.8333 32.5833ZM15.6667 18C16.3107 18 16.8333 17.4773 16.8333 16.8333C16.8333 16.1893 16.3107 15.6666 15.6667 15.6666C15.0227 15.6666 14.5 16.1893 14.5 16.8333C14.5 17.4773 15.0227 18 15.6667 18ZM19.1667 18C19.8107 18 20.3333 17.4773 20.3333 16.8333C20.3333 16.1893 19.8107 15.6666 19.1667 15.6666C18.5227 15.6666 18 16.1893 18 16.8333C18 17.4773 18.5227 18 19.1667 18ZM22.6667 18C23.3107 18 23.8333 17.4773 23.8333 16.8333C23.8333 16.1893 23.3107 15.6666 22.6667 15.6666C22.0227 15.6666 21.5 16.1893 21.5 16.8333C21.5 17.4773 22.0227 18 22.6667 18ZM28.3145 24.5741C28.0812 24.3548 27.709 24.3676 27.4908 24.6021C27.2715 24.8378 27.2832 25.2076 27.5188 25.4258L30.4227 28.1348C30.6887 28.4008 30.8345 28.7543 30.8333 29.1311C30.8333 29.5056 30.684 29.8591 30.4355 30.1053L27.5258 32.7338C27.2867 32.9508 27.268 33.3183 27.4838 33.5575C27.6997 33.7978 28.0683 33.8141 28.3075 33.5995L31.237 30.9523C31.727 30.4681 31.9977 29.8218 32 29.1335C32.0023 28.4451 31.7352 27.7965 31.2335 27.296L28.3145 24.573V24.5741Z" fill="#F5731E"/>
</svg>
