<svg width="50" height="50" viewBox="0 0 50 50" fill="none" xmlns="http://www.w3.org/2000/svg">
<rect x="0.5" y="0.5" width="49" height="49" rx="7.5" fill="#3699DA" fill-opacity="0.1"/>
<rect x="0.5" y="0.5" width="49" height="49" rx="7.5" stroke="#3699DA"/>
<g clip-path="url(#clip0_50_109)">
<path d="M38.9942 25.9206C38.895 28.5841 37.5312 31.0329 35.2527 32.6382C34.989 32.8226 34.6262 32.7596 34.4395 32.4971C34.2552 32.2334 34.3182 31.8694 34.5807 31.6839C36.5593 30.2909 37.7435 28.1746 37.8275 25.8774C37.9628 22.2246 35.4767 18.9952 31.9183 18.1961C31.0597 18.0036 30.3468 17.4529 29.9618 16.6864C28.3133 13.3952 24.7515 11.6394 21.0975 12.3184C17.9043 12.9111 15.3213 15.4579 14.6703 18.6569C14.4755 19.6136 14.4475 20.5772 14.5852 21.5176C14.7368 22.5606 14.4463 23.5184 13.7848 24.1484C12.7418 25.1447 12.1667 26.4829 12.1655 27.9167C12.1655 30.9582 14.374 33.1667 17.4155 33.1667H18.5822C18.9042 33.1667 19.1655 33.4281 19.1655 33.7501C19.1655 34.0721 18.9042 34.3334 18.5822 34.3334H17.4155C13.7568 34.3334 10.9988 31.5754 10.9988 27.9167C10.9988 26.1621 11.7035 24.5241 12.9787 23.3049C13.3625 22.9397 13.5258 22.3494 13.429 21.6867C13.2727 20.6122 13.3053 19.5144 13.5258 18.4247C14.2725 14.7649 17.2288 11.8494 20.8863 11.1704C25.0537 10.3946 29.123 12.4036 31.006 16.1626C31.2323 16.6152 31.6593 16.9419 32.1738 17.0574C36.2817 17.9791 39.1493 21.7054 38.9942 25.9206ZM32.7607 34.4979L29.6667 37.4974V24.4167C29.6667 24.0947 29.4053 23.8334 29.0833 23.8334C28.7613 23.8334 28.5 24.0947 28.5 24.4167V37.4962L25.406 34.4967C25.1762 34.2739 24.8063 34.2786 24.5812 34.5107C24.3583 34.7417 24.363 35.1116 24.5952 35.3356L27.8467 38.4867C28.1722 38.8122 28.5968 38.9709 29.0227 38.9872C29.0437 38.9896 29.0623 39.0001 29.0845 39.0001C29.5313 39.0001 29.9758 38.8309 30.313 38.4937L33.5715 35.3356C33.8025 35.1116 33.8083 34.7417 33.5855 34.5107C33.3615 34.2797 32.9917 34.2739 32.7607 34.4967V34.4979ZM25.7607 28.3367C25.8738 28.4464 26.0208 28.5012 26.1667 28.5012C26.3195 28.5012 26.4712 28.4417 26.5855 28.3239C26.8083 28.0929 26.8037 27.7231 26.5715 27.4991L23.32 24.3479C22.9922 24.0201 22.564 23.8591 22.1347 23.8451C22.1172 23.8439 22.1008 23.8346 22.0833 23.8346C22.0588 23.8346 22.0367 23.8462 22.0133 23.8486C21.591 23.8649 21.1722 24.0212 20.8537 24.3409L17.5952 27.4991C17.3642 27.7231 17.3583 28.0929 17.5812 28.3239C17.8063 28.5561 18.1762 28.5619 18.406 28.3379L21.5 25.3384V38.4191C21.5 38.7411 21.7613 39.0024 22.0833 39.0024C22.4053 39.0024 22.6667 38.7411 22.6667 38.4191V25.3384L25.7607 28.3379V28.3367Z" fill="#3699DA"/>
</g>
<defs>
<clipPath id="clip0_50_109">
<rect width="28" height="28" fill="white" transform="translate(11 11)"/>
</clipPath>
</defs>
</svg>
