<svg width="50" height="50" viewBox="0 0 50 50" fill="none" xmlns="http://www.w3.org/2000/svg">
<rect x="0.5" y="0.5" width="49" height="49" rx="7.5" fill="#C33251" fill-opacity="0.1"/>
<rect x="0.5" y="0.5" width="49" height="49" rx="7.5" stroke="#C33251"/>
<path d="M37.8333 30.8391C37.8333 27.8688 36.6596 26.3323 35.0461 25.5518C35.01 16.7902 32 13.0475 25 13.0475C18.0945 13.0475 14.9923 16.9057 14.9538 25.5518C13.3403 26.3323 12.1666 27.8688 12.1666 30.8391C12.1666 36.207 15.9968 36.8942 19.3346 36.8942C19.5866 36.8942 19.8095 36.732 19.8888 36.494C21.0963 32.847 21.0963 28.8313 19.8888 25.1843C19.8095 24.9463 19.5866 24.7842 19.3346 24.7842C18.2683 24.7842 17.1518 24.8542 16.1263 25.126C16.2896 15.5523 20.4791 14.2142 25.0011 14.2142C29.5231 14.2142 33.7126 15.5523 33.876 25.126C32.8505 24.8553 31.734 24.7842 30.6676 24.7842C30.4156 24.7842 30.1928 24.9463 30.1135 25.1843C28.9865 28.5863 28.913 32.3127 29.8883 35.759C28.2666 35.8127 26.7208 35.7823 25.2835 35.6668C24.9556 35.6447 24.6815 35.8803 24.6546 36.2012C24.629 36.522 24.8681 36.8043 25.189 36.8288C26.1993 36.9105 27.2586 36.9513 28.36 36.9513C29.1125 36.9513 29.8836 36.9327 30.67 36.893C34.0055 36.893 37.8345 36.2035 37.8345 30.838L37.8333 30.8391ZM18.9088 35.7228C14.9048 35.633 13.3333 34.2388 13.3333 30.838C13.3333 27.4372 14.9048 26.0453 18.9088 25.9543C19.8666 29.1195 19.8666 32.5577 18.9088 35.7228ZM31.0923 35.7228C30.1345 32.5565 30.1345 29.1207 31.0923 25.9555C35.0963 26.0453 36.6678 27.4383 36.6678 30.8391C36.6678 34.24 35.0963 35.633 31.0935 35.724L31.0923 35.7228Z" fill="#C33251"/>
</svg>
